<svg fill-rule="evenodd" role="img" viewBox="0 0 560 440" xmlns="http://www.w3.org/2000/svg"><title>Dow Jones</title><g fill="currentColor"><path d="M134.843 388.183c-3.133.067-6.264.45-8.236 1.118-4.09 1.39-8.316 4.9-10.248 8.517-1.315 2.462-1.467 3.812-1.667 14.805-.144 7.954.044 12.97.546 14.647 1.684 5.622 6.049 9.988 11.881 11.882 1.846.6 4.988.853 9.041.727 9.747-.302 15.276-3.46 18.394-10.505 1.275-2.874 1.522-4.738 1.747-13.216.303-11.35-.406-15.919-3.094-19.922-2.128-3.17-6.277-6.157-10.12-7.293-1.977-.583-5.113-.828-8.244-.76zm.865 9.773c2.793.079 5.548 1.051 7.392 2.974l1.888 1.969.184 10.582c.21 11.992-.275 13.643-4.62 15.705-4.719 2.24-10.962.865-13.826-3.043-1.234-1.683-1.355-2.761-1.355-12.097 0-8.974.153-10.477 1.236-12.075 1.857-2.739 5.51-4.116 9.101-4.015zm134.336 41.479c-5.339-1.608-8.707-5.502-9.59-11.088l-.522-3.3h5.382c5.376 0 5.381.001 6.203 1.987 1.435 3.464 5.58 4.366 8.719 1.897l1.713-1.348.175-19.412.171-19.413h10.463l.17 19.25c.205 22.518-.13 24.656-4.42 28.33-1.43 1.227-3.745 2.572-5.142 2.99-2.86.857-10.622.92-13.322.107zm56.39-51.28c-5.418-.006-6.713.225-10.134 1.807-4.844 2.24-6.519 3.77-8.708 7.95-1.616 3.085-1.726 3.9-1.961 14.489-.2 9.01-.037 11.945.823 14.902 1.687 5.809 6.906 10.652 13.115 12.17 3.754.917 11.838.647 15.45-.518 5.002-1.61 9.899-6.491 11.296-11.248 1.414-4.813 1.464-22.585.074-27.253-1.357-4.584-4.668-8.164-9.612-10.416-3.622-1.644-4.904-1.878-10.341-1.883zm.149 9.838c2.192.042 4.4.523 5.862 1.428 3.433 2.123 3.8 3.567 3.8 15.107 0 9.62-.106 10.468-1.421 12.144-.778.992-2.387 2.208-3.572 2.704-4.862 2.03-11.036.569-13.303-3.148-1.17-1.92-1.32-3.29-1.32-12.196 0-11.106.427-12.645 4.131-14.833 1.44-.85 3.628-1.248 5.823-1.206zm145.775 41.123c-3.768-1.176-7.487-3.827-9.497-6.766-1.774-2.602-3.343-7.597-2.706-8.626.22-.351 2.681-.638 5.468-.638 5.075 0 5.075.002 6.008 2.078 1.585 3.52 3.996 4.788 9.088 4.788 5.288 0 7.217-1.225 7.217-4.577 0-3.068-1.683-4.152-9.596-6.192-9.114-2.345-10.077-2.756-13.249-5.622-5.623-5.08-6.071-14.223-.971-19.867 7.552-8.358 25.296-7.314 31.36 1.843.916 1.385 1.839 3.59 2.052 4.898l.383 2.381h-5.263c-4.88 0-5.345-.12-6.473-1.658-3.72-5.11-14.59-3.892-14.59 1.636 0 2.804 2.297 4.193 10.192 6.173 7.961 1.995 10.193 2.98 13.2 5.837 2.231 2.118 4.07 6.884 4.063 10.526-.009 6.31-4.235 11.867-10.412 13.703-4.267 1.266-12.35 1.308-16.274.083zM61.292 388.757l-.171 25.337-.17 25.338H73.5c15.002 0 18.578-.734 23.136-4.746 5.277-4.645 5.807-6.332 6.061-19.28.18-9.078.017-11.895-.834-14.457-1.521-4.578-4.778-8.046-9.636-10.263-4.113-1.878-4.172-1.886-17.53-1.907zm10.789 10.135h6.95c5.772 0 7.308.22 9.034 1.287 3.513 2.17 3.96 3.764 3.96 14.134 0 10.47-.5 11.895-4.952 14.166-1.68.856-3.84 1.143-8.615 1.144H72.08v-15.365zm103.635 39.068c-1.075-4.497-9.482-47.375-9.482-48.358 0-1.027.639-1.17 5.177-1.17h5.177l.638 3.105c.35 1.708 1.753 9.206 3.118 16.66 1.363 7.456 2.568 13.468 2.677 13.359.107-.109 1.693-5.179 3.52-11.267s4.06-13.511 4.961-16.496l1.639-5.427 6.698.392 4.883 16.51c2.687 9.08 4.97 16.426 5.072 16.323s1.528-7.343 3.165-16.089 3.14-16.165 3.339-16.486c.434-.706 9.888-.792 10.315-.094.164.27-1.948 11.745-4.695 25.5l-4.993 25.01h-11.818l-4.17-13.404c-2.294-7.372-4.346-13.399-4.562-13.392-.215.007-1.324 3.023-2.463 6.703a9181.146 7182.59 0 0 1-4.175 13.392l-2.1 6.7h-5.784c-5.46 0-5.806-.082-6.137-1.47zm184.217-23.865l.173-25.337 5.23-.18 5.231-.179 10.135 16.193 10.136 16.192.171-16.176.179-16.177h10.438v51l-5.394-.002-5.394-.002-9.808-15.66-9.808-15.659-.173 15.662-.179 15.662h-11.108l.171-25.337zm55.424-.175v-25.512l33.674.35v9.808l-11.279.178-11.28.18v9.743l19.944.36.384 9.482h-20.327v11.116h22.886v9.807h-34.002zM158.388 145.83V0l80.261.201 80.263.201 6.865 1.72c33.291 8.337 57.704 29.599 69.653 60.655 2.877 7.475 5.51 19.588 6 27.543l.392 6.488h-48.5l-.377-3.106c-1.258-10.322-4.512-18.544-10.347-26.126-5.835-7.582-14.613-13.73-24.34-17.045l-5.231-1.783-52.8-.185-52.8-.186v194.896h48.387v48.386h-97.426z"/><path d="M292.43 267.66v-24.188l8.664-.44c4.766-.243 10.528-.879 12.8-1.413 13.984-3.28 27.52-13.968 33.822-26.702 5.27-10.652 5.082-8.972 5.352-47.329l.245-34.164h48.395l-.253 37.107-.246 37.107-1.692 6.865c-4.749 19.295-13.004 34.058-26.67 47.724-11.09 11.093-23.35 18.813-37.81 23.82-10.804 3.738-17.915 4.98-31 5.414l-11.607.385z"/></g></svg>
