<svg fill-rule="evenodd" role="img" viewBox="0 0 560 440" xmlns="http://www.w3.org/2000/svg"><title>Find My Past</title><path d="M486.965 138.1h2.958l.318.091c2.604.766 4.82 2.429 5.905 4.963 1.487 3.262.64 7.203-1.939 9.656-2.457 2.349-6.244 3.028-9.345 1.62-2.527-1.102-4.463-3.5-4.935-6.226-.266-2.05-.126-4.105.98-5.904 1.284-2.258 3.531-3.703 6.058-4.2zm-37.383 5.498c1.344-.294 2.856-.294 4.203-.035 2.548.637 4.722 2.618 5.625 5.079.493 1.337.56 2.75.395 4.158-.381 2.747-2.292 5.173-4.84 6.244-2.474 1.008-5.415.812-7.661-.669-2.331-1.49-3.819-4.196-3.731-6.975-.018-3.574 2.565-6.888 6.009-7.802zm71.705 8.312a9.833 9.833 0 0 1 9.74 2.566c3.199 3.122 3.685 8.52 1.218 12.212-1.361 2.09-3.458 3.601-5.887 4.175-4.336 1.155-9.166-1.123-11.102-5.159-1.554-3.14-1.298-7.122.746-9.982 1.256-1.848 3.157-3.157 5.285-3.811z" fill="currentColor" fillOpacity="0.325"/><path d="M34.597 164.035c-.14 2.866-.689 5.74-1.043 8.592-2.446-.493-4.753-.97-7.252-.483a6.926 6.926 0 0 0-5.054 3.665c-1.116 2.061-1.316 4.438-1.414 6.74-.014 3.89 0 7.778-.003 11.663 3.832.024 7.668-.05 11.501.042a296.718 296.718 0 0 0-.003 8.088c-3.83.088-7.665.018-11.498.039.007 13.909-.014 27.821.01 41.73-3.335.021-6.667.007-10.002.007.003-13.909 0-27.818.003-41.723-3.283-.028-6.562-.007-9.842-.014v-8.173c3.28.004 6.559.018 9.839-.007.01-3.885-.007-7.77.003-11.651.179-4.14.854-8.327 3.15-11.865 2.216-3.483 5.824-5.828 9.807-6.787 3.847-.784 7.987-.833 11.799.137z" fill="currentColor"/><path d="M422.971 164.934c3.563-.756 7.26 1.48 8.17 5.009.745 2.688-.19 5.638-2.388 7.364-2.285 1.883-5.925 1.956-8.326.255-2.608-1.743-3.784-5.4-2.52-8.305.826-2.198 2.782-3.826 5.064-4.323z" fill="currentColor" fillOpacity="0.325"/><path d="M43.575 173.303c2.86-1.064 6.258-.032 7.945 2.53 1.659 2.46 1.365 6.013-.847 8.047-2.433 2.422-6.629 2.53-9.174.217-2.05-1.771-2.513-4.662-1.648-7.15.658-1.684 2.047-2.99 3.724-3.644zm450.698 6.677c3.283-.073 6.566-.02 9.85-.027-.011 4.739.027 9.481-.022 14.224 4.393.073 8.789.035 13.181.017.035 2.737.025 5.47 0 8.204-4.392-.017-8.792-.052-13.184.018.063 8.781.003 17.56.028 26.34.042 1.824.34 3.938 1.382 5.485.875 1.285 2.3 1.883 3.784 2.146 2.6.374 5.141-.067 7.591-.952.343 2.698.21 5.463.333 8.182-1.708.504-3.381 1.012-5.17 1.141-3.458.308-7.35.33-10.545-1.207-2.412-1.092-4.35-3-5.513-5.372-1.2-2.489-1.725-5.275-1.69-8.03 0-9.253.003-18.507 0-27.761-3.178-.01-6.353-.014-9.527.003-.067-2.726-.067-5.46-.004-8.19 3.178.018 6.353.014 9.531.004-.01-4.74.028-9.482-.025-14.224z" fill="currentColor"/><path d="M546.406 183.712c3.969-.564 8.067 1.25 10.206 4.662 2.67 4.144 2.03 9.954-1.652 13.29-3.833 3.664-10.266 3.713-14.123.059-3.699-3.238-4.438-9.093-1.83-13.22 1.6-2.604 4.368-4.4 7.399-4.791z" fill="currentColor" fillOpacity="0.325"/><path d="M97.118 196.035c3.941 2.748 6.279 7.039 7.108 11.711.62 3.052.42 6.017.448 9.104-.007 9.09.011 18.182-.01 27.271-3.311 0-6.619-.003-9.93 0-.042-9.32.014-18.644-.028-27.968-.01-3.3-.294-6.632-1.799-9.632-1.144-2.303-3.251-4.137-5.754-4.798-2.992-.816-6.328-.61-9.145.71-2.919 1.397-5.142 4.067-6.37 7.021-1.166 2.702-1.463 5.877-1.505 8.796-.007 8.627.017 17.258-.01 25.885-3.287-.035-6.574 0-9.86-.02.021-12.59-.004-25.176.014-37.765-.193-4.053-.217-8.103-.43-12.152 3.125.024 6.25.02 9.376.003.413 2.769.283 5.534.42 8.316.721-1.043 1.333-2.135 2.156-3.111 2.58-3.087 6.216-5.268 10.143-6.132 5.117-.966 10.871-.385 15.176 2.761zm152.089-2.625c4.116 1.033 7.962 3.668 10.174 7.326 2.52 3.99 3.157 8.68 3.196 13.314-.025 10.02.021 20.04-.021 30.061-3.336.028-6.668-.014-10.003.028-.039-7.812-.004-15.627-.018-23.44-.028-3.076.161-6.044-.37-9.096-.407-2.95-1.607-6.167-3.931-8.14-2.492-2.227-6.335-2.594-9.482-1.912-3.878.826-6.81 3.85-8.267 7.441-.952 2.503-1.463 5.173-1.442 7.854-.007 9.097.018 18.197-.014 27.293-3.318-.035-6.636-.018-9.954-.01-.02-10.255.014-20.531-.014-30.783-.164-2.674-.553-5.775-2.089-8.036a8.385 8.385 0 0 0-4.515-3.482c-3.353-1.085-7.242-.683-10.175 1.323-4.574 3.265-6.286 8.617-6.31 14.049.01 8.974.003 17.948.007 26.921-3.336-.007-6.675.014-10.01-.014.031-12.935.003-25.871.014-38.807.042-3.696-.189-7.4-.41-11.088 3.147-.004 6.29.014 9.433-.014.27 2.758.416 5.547.486 8.316 2.391-4.456 6.391-7.949 11.358-9.153 4.546-.997 9.604-.616 13.692 1.73 3.02 1.697 5.012 4.42 6.401 7.535.56-.837 1.089-1.705 1.687-2.506 2.548-3.416 6.3-5.723 10.42-6.73 3.342-.753 6.814-.697 10.157.02zm222.204 1.12c3.357 1.236 6.818 3.462 8.726 6.552-2.205 2.027-4.56 3.927-6.86 5.849-1.781-2.81-4.613-4.848-7.805-5.747-1.799-.448-3.738-.43-5.575-.315-2.296.16-4.89 1.127-6.314 3.02-1.733 2.324-1.32 5.985 1.207 7.567 2.278 1.393 5.082 2.142 7.654 2.797 3.721.847 7.68 1.89 11.05 3.72 2.817 1.547 5.278 3.833 6.366 6.923 1.043 2.814.938 5.82.277 8.708-.802 3.413-3.007 6.447-5.912 8.386-3.377 2.303-7.171 3.073-11.179 3.426-2.61.105-5.183.12-7.749-.448-5.775-1.085-11.126-3.755-14.756-8.48 2.387-1.963 4.655-4.109 7.116-5.967 2.548 3.279 5.971 5.74 10.094 6.559 2.418.402 5.026.385 7.406-.228 2.401-.651 4.585-2.09 5.299-4.595.826-2.531-.032-5.418-2.387-6.78-4.33-2.534-10.115-3.192-14.795-4.823-3.209-1.04-6.345-2.877-8.214-5.76-1.907-2.734-2.124-6.399-1.624-9.594.332-2.433 1.473-4.582 3.031-6.447 2.415-2.867 5.999-4.53 9.586-5.376 5.124-1.057 10.451-.816 15.358 1.053zm-430.345-.28c3.293-.105 6.604-.003 9.901-.035.003 16.629-.017 33.26.01 49.892-3.321.025-6.642.014-9.967.007.014-15.27.003-30.544.007-45.814.013-1.344-.067-2.71.048-4.05zm235.437-.049c4.456 11.151 8.827 22.34 13.255 33.506.76 1.897 1.445 3.822 2.31 5.652 4.532-13.055 9.194-26.064 13.723-39.12 3.546-.055 7.095-.013 10.64-.024-7.808 20.1-15.753 40.173-23.6 60.263-1.348 3.465-2.95 7.196-5.47 9.982-2.559 2.849-6.357 4.56-10.161 4.777-2.937.165-5.87.074-8.74-.616.294-2.908.623-5.813.879-8.725 2.303.381 4.473 1.046 6.818.577 1.67-.227 3.143-.994 4.203-2.313 2.349-2.835 3.525-6.794 4.851-10.185.438-1.27 1.103-2.524 1.355-3.843-.137-1.06-.763-2.09-1.152-3.08-6.685-15.596-13.356-31.213-20.051-46.805 3.713-.084 7.427 0 11.14-.046zM363.303 192.994c5.306.357 10.469 2.75 14.308 6.405 4.078 3.923 6.545 9.152 7.483 14.696.791 5.67.326 11.424-1.98 16.706-2.107 4.963-5.779 9.198-10.556 11.749-3.651 2.02-7.9 2.971-12.058 2.919-4.774.084-9.646-1.428-13.475-4.298-1.75-1.302-3.041-2.957-4.41-4.623-.109 10.909-.021 21.832-.046 32.745-3.286.01-6.576-.02-9.863.021-.066-25.018.025-50.042-.045-75.064 3.262-.06 6.552-.07 9.81.007-.042 2.629-.007 5.26-.031 7.89 1.753-2.633 3.969-4.848 6.72-6.427 4.235-2.527 9.296-3.216 14.143-2.726zm-7.178 8.337c4.34-.721 9.152.308 12.646 3.041 2.593 1.964 4.392 4.837 5.418 7.893 1.158 3.626 1.435 7.51.609 11.238-.847 4.442-3.29 8.533-7.116 11.022-2.628 1.781-5.768 2.607-8.932 2.513-4.574.16-9.047-1.932-12.085-5.31-3.01-3.31-4.495-7.647-4.694-12.078-.07-4.942 1.631-9.863 5.033-13.493a15.843 15.843 0 0 1 9.121-4.826zm-202.853-36.733c3.321-.01 6.64-.003 9.961 0 0 26.51.021 53.029-.01 79.537-3.228-.031-6.455-.007-9.682-.014a320.96 320.96 0 0 1 .011-7.972c-.924 1.344-1.893 2.632-3.097 3.741-3.298 3.122-7.788 4.861-12.244 5.456-4.945.455-9.95-.206-14.402-2.488-4.196-2.104-7.665-5.512-9.94-9.611-3.104-5.537-4.147-12.25-3.244-18.5.563-4.677 2.52-9.38 5.47-13.06 3.51-4.406 8.624-7.367 14.143-8.41 4.711-.742 9.723-.654 14.14 1.32 3.511 1.606 6.584 4.067 8.88 7.175.031-12.39 0-24.78.014-37.174zm-19.183 36.89c3.552-.591 7.437-.13 10.625 1.593 3.06 1.624 5.474 4.196 7.042 7.273 3.168 6.086 2.765 13.912-1.113 19.596-2.495 3.696-6.611 6.335-11.035 6.962-2.45.21-5.141.248-7.5-.54-4.256-1.305-7.816-4.644-9.611-8.697-2.751-6.167-2.373-13.916 1.368-19.593 2.317-3.493 6.052-5.992 10.224-6.594zm285.249-8.113c4.06.861 8.047 2.85 10.693 6.115 2.835 3.44 4.14 8.05 4.161 12.456.004 6.3-.003 12.604 0 18.904-.007 4.487-.038 8.851.732 13.289-3.003-.039-6.006-.014-9.009-.018-.63-2.404-.749-4.83-.879-7.3-1.627 2.177-3.398 4.14-5.74 5.575-4.613 3.003-10.8 3.587-16.096 2.46a17.98 17.98 0 0 1-7.424-3.08c-2.873-2.127-4.984-5.225-5.55-8.791-.54-3.392-.246-7.392 1.588-10.381 1.915-3.024 5.271-5.208 8.568-6.465 4.939-1.848 10.213-2.527 15.456-2.747 2.94-.116 5.87-.322 8.813-.26.014-2.747-.09-5.312-1.655-7.682-1.764-2.772-5.46-4.133-8.593-4.441-4.977-.508-9.996.973-14.014 3.916-.735.536-1.389 1.18-2.138 1.698-1.918-1.929-3.528-4.204-5.324-6.258 6.864-6.545 17.262-8.614 26.411-6.99zm5.285 26.926c.05 2.866.116 5.603-.896 8.344-1.274 3.577-3.902 6.6-7.528 7.899-3.304 1.13-6.993 1.253-10.37.364-2.202-.623-4.41-2.282-5.212-4.48-.763-2.429-.536-5.488 1.361-7.357 2.233-2.24 5.53-3.283 8.572-3.829 4.567-.833 9.429-.868 14.073-.941z" fill="currentColor"/><path d="M549.15 224.672c5.194-.23 9.898 3.626 10.85 8.708v4.134c-.62 2.709-2.156 5.155-4.462 6.73-3.231 2.282-7.823 2.492-11.27.57-3.605-1.963-5.849-6.005-5.53-10.111.248-5.404 4.984-10.003 10.412-10.03zm-22.232 34.384c4.091-.459 8.299 1.302 10.783 4.595 1.565 2.037 2.377 4.543 2.496 7.098-.003 3.262-1.267 6.493-3.63 8.768-3.622 3.643-9.474 4.476-13.986 2.033-4.207-2.152-6.723-6.804-6.328-11.5.343-5.66 5.002-10.5 10.665-10.994zm-87.615 5.852c5.722-1.264 12.068 1.354 15.347 6.188 2.888 4.12 3.532 9.653 1.603 14.304-2.103 5.348-7.402 9.17-13.156 9.398-5.471.367-10.882-2.506-13.717-7.182-2.278-3.665-2.81-8.376-1.505-12.474 1.638-5.19 6.076-9.188 11.428-10.234zm56.339 13.122c4.9 2.936 7.34 9.33 5.526 14.766-1.522 5.096-6.265 8.848-11.592 9.103h-1.7c-4.701-.364-9.003-3.314-10.854-7.672-2.268-4.99-.973-11.154 3.125-14.79 4.141-3.886 10.714-4.453 15.495-1.408z" fill="currentColor" fillOpacity="0.325"/></svg>
