<svg role="img" viewBox="0 0 560 440" xmlns="http://www.w3.org/2000/svg"><title> Hubble</title><path d="M145.854 189.718c-12.279-32.259-50.085-46.477-82.398-46.369-36.03.108-57.033 21.488-62.31 56.871-4.901 33.175 5.816 67.157 34.251 85.468 31.344 20.196 56.333 11.04 87.676-15.618 22.62-19.172 33.552-52.186 22.781-80.352zm-54.77 70.497c0 .7-.593 1.292-1.293 1.292h-6.57a1.31 1.31 0 01-1.293-1.292v-29.136c0-.7-.592-1.293-1.292-1.293H52.792c-.7 0-1.292.593-1.292 1.293v29.405c0 .7-.592 1.292-1.293 1.292h-6.624a1.31 1.31 0 01-1.292-1.292v-80.998c0-.7.592-1.293 1.292-1.293h6.57c.7 0 1.293.593 1.293 1.293v39.691c0 .7.592 1.293 1.293 1.293h36.998c.7 0 1.293.592 1.293 1.292l.053 38.453zm15.456.269c0 .7-.593 1.292-1.293 1.292h-6.57a1.31 1.31 0 01-1.293-1.292v-45.346c0-.7-.592-1.293-1.292-1.293H59.04a1.31 1.31 0 01-1.293-1.292v-6.57c0-.7.593-1.293 1.293-1.293h37.052c.7 0 1.292-.592 1.292-1.293v-23.911c0-.7.593-1.293 1.293-1.293h6.57c.7 0 1.293.593 1.293 1.293v80.998zM261.104 178.247h-10.179a1.816 1.816 0 00-1.83 1.831v31.128a1.816 1.816 0 01-1.832 1.831h-37.86a1.816 1.816 0 01-1.831-1.83v-31.129a1.816 1.816 0 00-1.831-1.83h-10.179a1.816 1.816 0 00-1.83 1.83v80.352c0 1.023.807 1.831 1.83 1.831h10.179a1.816 1.816 0 001.831-1.831v-32.42c0-1.024.808-1.832 1.831-1.832h37.86c1.023 0 1.831.808 1.831 1.831v32.421c0 1.023.808 1.831 1.831 1.831h10.179a1.816 1.816 0 001.831-1.831v-80.352c0-.97-.808-1.83-1.831-1.83zm65.057 24.881h-9.37a1.816 1.816 0 00-1.832 1.831v27.25c0 12.657-6.032 19.389-14.433 19.389-7.594 0-11.848-5.817-11.848-15.241v-31.398a1.816 1.816 0 00-1.831-1.83h-9.317a1.816 1.816 0 00-1.831 1.83v33.552c0 15.133 8.401 24.989 22.026 24.989 7.594 0 13.841-3.285 17.288-9.21v6.194c0 1.023.808 1.83 1.831 1.83h9.37a1.816 1.816 0 001.832-1.83v-55.525c-.054-1.023-.916-1.83-1.885-1.83zm46.638-1.185c-8.509 0-15.725 4.363-19.064 9.102v-35.652a1.816 1.816 0 00-1.831-1.831h-9.371a1.816 1.816 0 00-1.831 1.83v85.092c0 1.023.808 1.83 1.83 1.83h9.372a1.816 1.816 0 001.83-1.83v-6.086c3.286 4.74 10.556 9.102 19.065 9.102 16.21 0 28.544-13.841 28.544-30.752 0-16.91-12.333-30.805-28.544-30.805zm-2.315 49.709c-10.556 0-17.773-8.294-17.773-18.904 0-10.609 7.217-18.957 17.773-18.957 10.394 0 17.61 8.294 17.61 18.957 0 10.664-7.216 18.904-17.61 18.904zm71.465-49.709c-8.509 0-15.725 4.363-19.064 9.102v-35.652a1.816 1.816 0 00-1.831-1.831h-9.371a1.816 1.816 0 00-1.831 1.83v85.092c0 1.023.808 1.83 1.83 1.83h9.372a1.816 1.816 0 001.83-1.83v-6.086c3.34 4.74 10.502 9.102 19.065 9.102 16.21 0 28.544-13.841 28.544-30.752 0-16.91-12.333-30.805-28.544-30.805zm-2.37 49.709c-10.555 0-17.771-8.294-17.771-18.904 0-10.609 7.216-18.957 17.772-18.957 10.394 0 17.61 8.294 17.61 18.957 0 10.664-7.216 18.904-17.61 18.904zm50.57-78.144h-9.37a1.816 1.816 0 00-1.831 1.83v85.092c0 1.023.808 1.831 1.83 1.831h9.372a1.816 1.816 0 001.83-1.831v-85.091a1.816 1.816 0 00-1.83-1.831zM560 231.294c0-19.064-13.032-29.35-28.542-29.35-17.988 0-30.913 13.41-30.86 30.804.054 17.773 15.35 31.56 33.121 30.644 10.556-.539 18.634-5.116 23.75-12.171.216-.323.324-.7.324-1.077 0-.593-.27-1.131-.754-1.508l-6.948-4.955c-.807-.592-1.938-.377-2.53.43-3.232 4.417-8.456 7.487-15.942 7.487-9.801 0-17.61-6.409-18.203-16.103h43.892c1.454 0 2.693-1.185 2.693-2.639v-1.562zm-45.991-5.224c1.777-8.778 9.478-13.14 17.018-13.14 7.54 0 14.433 4.631 15.833 13.14h-32.851z" fill="currentColor"/></svg>
