<svg fill-rule="evenodd" role="img" viewBox="0 0 560 440" xmlns="http://www.w3.org/2000/svg"><title>Major Players</title><path d="M170.757 147.026h9.238c-2.24-29.812-3.919-38.77-4.759-63.403-1.12 24.633-2.38 33.311-4.479 63.403m11.757 33.032h-14.416l-3.64 35.83h-34.85L148.363 55.91h53.746l18.196 159.979h-34.152zm53.327-.84h.84c2.94 0 3.639-1.54 3.639-6.158V54.93h38.91v122.189c0 30.232-6.998 38.91-34.571 38.91h-20.5575l-3.78-36.81zm94.756-81.459c0-4.479-.7-6.159-3.639-6.159h-.98c-2.939 0-3.639 1.54-3.639 6.159v76.42c0 4.48.7 6.159 3.64 6.159h.98c2.939 0 3.638-1.54 3.638-6.159zM283.43 93.56c0-30.232 6.998-38.91 34.571-38.91h16.936c27.433 0 34.572 8.678 34.572 38.91v84.538c0 30.233-6.999 38.91-34.572 38.91H318c-27.433 0-34.57-8.677-34.57-38.91zm137.165 5.319c0-4.48-.7-6.159-3.64-6.159h-4.478v25.334h4.479c2.939 0 3.639-1.54 3.639-6.159zm38.77 88.877c0 10.357.84 20.155 4.479 27.993h-40.03c-2.94-5.179-3.36-14.836-3.36-24.914v-26.593c0-5.739-1.539-9.518-6.298-9.518h-1.82v61.025h-38.77V55.909h51.508c27.433 0 34.571 8.678 34.571 38.91v6.3c0 21.274-3.36 31.351-15.116 35.41 11.757 4.479 15.116 15.116 15.116 36.11v15.117z" fill="currentColor"/><path d="M43.39 296.228c2.938 0 3.638-1.54 3.638-6.158v-22.674c0-4.48-.7-6.159-3.639-6.159H38.91v34.991zM0 224.427h53.607c27.433 0 33.031 8.677 33.031 38.91v30.932c0 29.812-5.598 38.91-33.031 38.91H38.91v51.507H0zm189.793 90.277h9.237c-2.24-29.813-3.919-37.93-4.759-62.564-.98 24.633-2.379 32.751-4.478 62.564m11.897 33.171h-14.417l-3.639 36.67h-34.011l17.915-159.978h53.747l18.755 159.979h-34.571zM91.677 224.007v160.259h53.747l4.059-36.95h-21.695v-123.31z" fill="currentColor" fillOpacity="0.325"/><path d="M75.861 55.91l-12.457 76.14-12.317-76.14H.28v159.979h35.27v-78.8l12.317 78.8H79.08l12.457-78.8v78.8h35.131V55.909z" fill="currentColor"/><path d="M249.278 384.406v-43.669l-25.054-116.31h39.05l2.52 17.775c1.54 11.057 3.639 28.273 5.178 49.827 1.54-21.414 3.64-38.91 5.179-49.827l2.52-17.775h34.99l-25.613 116.31v43.669zm67.742-159.979v159.979h65.504v-36.67h-26.733v-27.714h20.435v-36.81H355.79v-21.975h26.733v-36.81zm116.872 43.109c0-4.48-.7-6.159-3.64-6.159h-4.478v25.334h4.478c2.94 0 3.64-1.54 3.64-6.159zm38.91 88.737c0 10.357.84 20.155 4.479 27.993h-40.03c-2.94-5.179-3.36-14.836-3.36-24.914V332.9c0-5.739-1.54-9.518-6.298-9.518h-1.82v61.025h-38.91v-159.98h51.507c27.434 0 34.572 8.678 34.572 38.91v6.3c0 21.274-3.36 31.351-15.116 35.41 11.757 4.479 15.116 15.116 15.116 36.11v15.117z" fill="currentColor" fillOpacity="0.325"/><path d="M520.95 339.897c0-11.757-5.739-15.816-20.155-26.873-15.116-11.897-24.354-21.974-24.354-46.748v-3.78c0-30.231 6.998-38.91 34.571-38.91h14.417c27.433 0 34.571 8.679 34.571 38.91v16.097h-36.67v-12.177c0-4.479-.7-6.158-3.64-6.158h-.98c-2.939 0-3.639 1.54-3.639 5.178v.42c0 11.757 5.879 15.816 20.155 26.873 15.396 12.177 24.634 21.975 24.634 46.748v6.999c0 30.232-6.998 38.91-34.571 38.91h-14.417c-27.433 0-34.571-8.678-34.571-38.91V325.62h36.39v16.656c0 4.478.7 6.158 3.64 6.158h1.12c2.659 0 3.359-1.54 3.359-6.158v-2.52h.14z" fill="currentColor" fillOpacity="0.325"/></svg>
