<svg fill-rule="evenodd" role="img" viewBox="0 0 560 440" xmlns="http://www.w3.org/2000/svg"><title>Suburb</title><g fill="currentColor"><path d="M559.41 207.28c-2.49-10.902-10.68-18.151-21.858-19.757-4.98-.718-9.685-.054-14.389 1.218-1.273.333-2.546.666-4.649 1.163.72-4.095 4.04-23.132 5.534-29.164 3.984-15.994-7.968-20.587-19.037-18.318-8.577 1.827-15.772 6.365-22.302 11.954-6.199 5.256-11.622 11.178-15.827 18.152-1.163 1.99-1.772 3.762-.388 5.922.664.994.996 2.212 1.273 3.375.941 4.868.055 5.698-5.091 6.752-9.353 1.936-17.764 7.858-19.535 9.019-2.104-5.59-5.812-9.019-11.18-9.518-3.541-.333-7.304.111-10.79 1.05-3.93 1.052-7.638 2.99-11.401 4.596-1.439.606-2.712 1.272-4.095-.278-5.258-6.09-12.12-5.535-18.983-4.15-6.53 1.326-12.063 4.923-17.431 8.742-1.55 1.109-3.21 2.105-4.926 3.266-.608-.94-1.05-1.382-1.217-1.88-3.21-8.966-8.965-12.286-18.374-10.462-6.363 1.218-12.063 4.096-17.487 7.637-3.708 2.436-3.763 2.436-6.807-.552-7.859-7.748-17.432-8.578-27.615-6.588-1.937.39-4.483 1.22-6.917 1.884 0 0 4.261-21.914 6.032-30.824 2.656-13.338-5.203-19.37-16.658-17.157-5.257 1.053-10.625 2.935-15.33 5.534-10.293 5.701-18.539 14.002-24.848 24.129-1.327 2.16-2.268 4.262-.442 6.697.665.94.94 2.27 1.051 3.43.332 3.986.332 5.81-4.703 6.422-7.306.827-13.448 4.59-19.259 8.852-1.66 1.218-3.431 2.326-5.756 3.929-1.493-4.48-2.6-8.91-6.696-10.79-3.763-1.716-9.573-2.046-15.495-1.937 0 0 5.977-5.092 7.748-6.864 3.21-3.263 6.364-6.528 7.968-11.012 4.373-12.12.886-24.183-9.463-32.208-8.41-6.53-18.04-9.85-28.5-11.4-10.57-1.55-18.76-.22-19.868-.056-14.498 1.717-27.725 6.642-39.512 15.274-2.713 1.993-4.981 2.047-7.914.608-4.926-2.378-10.017-4.371-15.053-6.585-21.638-9.461-41.505-4.757-60.377 7.582-2.767 1.827-5.201 4.262-7.47 6.64-5.645 5.923-9.02 13.005-10.46 20.978-1.272 6.916-1.106 11.178-.166 15.271 3.819 17.434 15.938 27.946 33.703 29.221 1.55.11 3.264.664 6.031 1.218-2.6 2.212-4.26 3.65-6.031 5.09-6.641 5.422-12.175 11.844-16.492 19.312-7.803 13.504-6.64 26.842.996 39.79 8.246 13.947 21.085 21.972 36.193 26.676 8.135 2.212 21.25 4.426 33.592 2.987 17.709-2.045 34.367-9.073 46.542-22.411 2.38-2.602 4.648-5.202 7.415-7.416 1.771-1.439 3.043-2.16 5.036-.276 8.246 7.801 16.492 7.635 26.342 3.93 3.818-1.44 7.36-3.654 10.902-5.702 1.827-1.05 3.154-1.493 4.649.555 4.649 6.307 11.345 7.967 18.65 7.415 4.537-.387 8.965-1.66 13.447-2.435 1.328-.221 2.823-.72 3.93-.278 8.744 3.21 17.82 2.16 26.729 1.772 9.132-.388 18.096-2.379 26.563-6.032 6.365-2.711 12.175-6.198 16.824-11.511.664-.776 1.55-1.44 2.38-2.046.166-.166.553 0 1.107 0 .166.661.497 1.38.442 2.046-.72 8.743 8.8 17.6 19.038 17.818a79.767 189.514 0 0 0 18.372-4.538c2.657-1.381 5.313-2.877 8.301-4.537 1.051 1.274 1.937 2.435 2.878 3.598 3.266 3.984 7.416 6.198 12.618 6.365 7.803.22 15.496 0 22.69-3.71 1.217-.607 2.988-.719 4.372-.386 7.194 1.66 14.554 1.494 21.803 1.16 2.38-.109 5.203-1.272 6.863-2.932 4.206-4.15 8.356-8.522 11.622-13.39 2.933-4.374 3.984-17.267 5.201-21.475.444-1.548 1.55-3.044 2.99-1.878 8.023 6.583 19.867-1.499 19.867-1.499s-.554 2.604-.775 3.71c-1.162 6.144-2.49 12.23-3.487 18.373-2.102 12.508 1.273 18.428 13.559 19.7 5.422.555 10.957.61 16.38.388 4.982-.221 10.072-.773 14.886-1.99 28.39-6.865 48.812-23.3 59.658-50.748 3.542-9.133 4.206-20.478 2.878-26.51zM115.58 187.584c3.099 3.21 6.973 5.865 10.791 8.3 4.76 2.988 9.85 5.423 14.776 8.246 2.38 1.384 4.594 3.045 6.752 4.705 11.123 8.576 14.666 20.087 12.618 33.647-3.597 23.686-18.54 37.576-40.233 44.38-20.365 6.367-40.676 4.873-59.657-5.641-12.784-7.086-21.97-17.158-25.014-32.044-1.882-9.297.11-17.598 5.921-24.902 7.969-9.963 18.43-15.055 31.213-15.552 8.078-.333 15.827.885 22.91 4.816 2.214 1.215 4.317 2.878 5.977 4.814 2.103 2.545 1.494 4.593-1.218 6.531-1.106.773-2.38 1.382-3.485 2.212-4.373 3.32-5.092 9.021-1.716 13.393 5.866 7.636 20.365 6.918 25.4-1.273 2.492-4.095 2.658-8.3.443-12.617-1.937-3.763-4.925-6.531-8.577-8.634-6.917-3.929-13.17-8.688-18.982-14.168-10.293-9.794-12.009-21.305-7.305-34.256.775-2.157 1.826-4.15 3.154-7.249-3.652-1.051-6.75-2.378-9.96-2.711-5.037-.5-8.856 2.157-11.124 6.53-2.214 4.151-2.546 8.468.387 12.506 1.826 2.49 4.427 3.487 7.415 4.041 1.495.276 3.377 1.163 3.985 2.379 1.052 1.993-.608 3.71-2.103 5.037-3.32 2.878-7.416 4.483-11.676 4.814-7.416.609-14.887.609-22.192-1.606-9.02-2.766-15.55-8.521-19.258-16.988-5.922-13.502.33-28.779 14-35.916 9.409-4.924 19.481-4.98 29.332-1.993 7.802 2.378 26.009 10.293 27.503 11.012 2.435 1.22 4.483.941 6.697-.885 9.574-7.635 20.475-12.618 32.43-14.941 13.17-2.602 26.286-2.545 39.125 2.102a49.27 49.27 0 0 1 14.942 8.634c11.899 10.072 10.736 29.385-3.487 37.63-6.197 3.599-12.839 5.369-19.922 5.868-16.824 1.16-32.265-2.933-46.652-11.566-1.107-.666-2.436-1.108-3.542-1.605-3.375 4.98-3.598 8.966.332 12.95zM237.77 262.79c-2.102 2.435-4.98 2.269-7.582 2.49-2.877.278-5.81.166-8.688.112-6.863-.167-10.847-3.654-12.175-10.515-.055-.443-.277-.833-.609-1.993-1.494 1.05-2.823 1.88-4.04 2.823-6.474 4.98-13.392 8.966-21.637 10.127-4.87.718-9.408-.221-13.449-3.1-4.648-3.32-6.64-7.8-5.479-13.501a6256.738 6256.738 0 0 1 6.365-31.323c1.605-7.75 1.605-7.75-1.44-14.89 4.262-4.092 9.52-6.582 15.22-8.41a68.834 163.537 0 0 1 4.87-1.107c7.969-1.216 13.115 4.04 11.677 11.953-1.163 6.31-2.546 12.508-3.82 18.761-.608 3.156-1.272 6.255-1.77 9.409-.83 5.256 2.713 8.412 7.97 7.361 3.265-.666 5.533-2.602 6.862-5.48 1.217-2.602 2.102-5.368 2.878-8.134 1.05-3.82 1.826-7.694 2.71-11.566 1.495-6.588 1.495-6.807-2.268-13.005 6.807-5.59 13.945-9.632 22.8-9.52 6.918.057 10.626 4.65 9.297 11.456-2.933 14.777-6.032 29.497-9.02 44.271-.996 4.705-1.494 9.354 1.328 13.78zm52.518-1.715c-13.28 3.874-26.784 5.534-40.564 3.377-6.42-.999-8.855-3.653-8.301-10.239.553-6.198 1.882-12.287 3.098-18.373 4.483-22.523 8.966-44.992 13.615-67.46.664-3.32.497-6.422-1.218-9.243-1.162-1.88-.72-3.044.886-4.207 6.474-4.48 13.337-7.635 21.527-7.58 5.312.055 10.127 4.705 8.854 10.513-2.71 12.01-4.815 24.13-7.138 36.194-.333 1.772-.664 3.544-1.163 6.255 3.432-1.938 5.977-3.544 8.69-4.926 4.98-2.656 10.292-3.71 15.881-2.823 11.9 1.827 18.595 10.24 19.149 22.414.83 17.1-10.073 39.346-33.316 46.098zm82.846 3.21c-3.32-1.605-5.258-4.54-5.646-8.357-.11-1.051-.277-2.045-.498-4.04-1.882 1.329-3.32 2.268-4.648 3.322-6.087 4.702-12.673 8.355-20.365 9.74-4.926.884-9.409 0-13.559-2.546-5.202-3.156-7.36-8.027-6.198-14.001a713.217 1694.489 0 0 1 6.31-31.324c.94-4.483 1.935-8.909-.887-13.226-.387-.554.221-2.435.941-2.99 6.087-4.483 12.729-7.912 20.421-8.245 7.084-.333 11.179 4.87 9.85 12.065a257.22 611.113 0 0 1-5.478 27.278c-.609 2.99-.333 5.537 2.213 7.306 2.823 1.939 6.033 1.772 8.523-.333 2.102-1.824 4.206-4.26 5.036-6.804 2.214-7.085 4.04-14.39 5.312-21.693.444-2.493-1.383-5.37-2.434-9.022 1.328-.941 3.264-2.544 5.367-3.82 5.147-3.21 10.626-5.367 16.768-5.255 6.918.109 10.682 4.704 9.353 11.454-2.712 14.056-5.534 28.058-8.412 42.06-1.826 9.132-1.882 10.238.499 18.317-7.471 2.27-14.997 3.763-22.468.11zm94.687-40.677c-9.13 5.147-17.155.833-17.764-10.182-6.475 3.432-10.791 6.695-15.33 13.947-6.973 11.124-6.917 27.28-7.581 31.49-.498 3.097-.61 3.927-4.98 3.872-3.654-.055-7.306.112-10.958-.112-6.254-.333-11.733-2.82-10.072-12.175 2.102-11.678 4.483-23.296 6.751-34.92.83-4.204 1.605-8.412-.775-12.395-.94-1.549 0-2.6 1.218-3.432 6.918-4.757 14.333-8.08 22.966-7.25 5.036.5 7.858 4.262 7.25 9.685-.166 1.66-.996 6.143-.996 6.143 2.435-2.268 5.257-5.035 7.858-7.082a69.032 164.008 0 0 1 15.55-8.08c12.12-2.935 20.255 5.202 17.157 17.267-1.55 5.808-5.036 10.237-10.294 13.224zm52.02 37.134c-12.396 3.099-24.848 4.095-37.52 2.711-6.364-.718-9.297-3.929-8.69-10.458.555-6.031 1.938-12.01 3.1-17.933 4.427-22.078 8.965-44.104 13.504-66.13.774-3.872 1.051-7.58-1.052-11.067-1.162-1.938-.332-3.1 1.161-4.15 5.646-4.041 11.844-6.919 18.816-7.637 6.42-.666 13.227 3.596 11.235 11.842-2.878 11.787-4.87 23.795-7.194 35.75-.333 1.605-.554 3.265-.997 5.645 3.376-1.938 5.977-3.486 8.634-4.925 6.197-3.32 12.783-3.82 19.48-2.048 8.854 2.378 14.72 10.237 15.384 19.37 1.66 21.638-11.953 43.11-35.86 49.03z"/><path d="M142.142 168.542c3.874-.167 7.582-.94 10.681-3.43s3.21-5.701 0-8.025c-1.772-1.327-3.984-2.49-6.142-2.932-9.298-1.772-17.378.773-24.406 7.8 6.42 3.711 12.563 6.865 19.868 6.589zm143 46.487c-5.976-.054-8.356 1.715-9.684 7.416-.94 3.984-1.715 8.025-2.49 12.063-.499 2.712.332 4.096 2.767 4.041 8.689-.166 16.658-5.423 17.321-15.274.443-5.368-2.49-8.191-7.913-8.246zm234.423-1.384c-4.98-1.272-10.182 1.494-11.455 6.365-1.107 4.262-1.992 8.576-2.767 12.95-.664 3.65-.11 4.15 3.764 4.205 7.691.055 14.332-5.368 15.993-13.06 1.161-5.147-1.05-9.3-5.535-10.46z"/></g></svg>
