<svg fill-rule="evenodd" role="img" viewBox="0 0 560 440" xmlns="http://www.w3.org/2000/svg"><title>Chartwells</title><path d="M415.188 98.822c6.909 6.497 14.217 12.588 20.99 19.215-5.443-.48-10.813-1.364-16.296-1.465-4.536-.327-9.106-.305-13.653-.4-17.328.32-34.48 3.426-50.912 8.897-9.827 2.93-19.35 6.756-28.372 11.642-7.286 4-14.403 8.723-20.15 14.78-3.28 3.415-5.962 7.36-7.839 11.715-2.248-2.31-3.505-4.975-5.229-7.703-2.98-5.01-6.249-9.878-9.027-15.011 6.204-2.316 12.566-4.193 18.826-6.35 36.205-12.014 72.685-24.045 108.805-36.076 1.364-.462 1.854-.174 2.857.756z" fill="currentColor" fillOpacity="0.325"/><path d="M406.229 116.171c4.547.096 9.117.074 13.653.4-6.21-.016-12.357-.14-18.545.558-20.15 2.204-40.019 6.757-58.53 15.153-6.412 2.97-12.549 6.21-18.105 10.622-6.598 4.553-12.633 9.337-17.383 15.879-3.68 5.049-6.064 10.948-6.526 17.203-.157 3.815 1.358 6.824 2.852 10.188-3.793-3.69-6.25-8.79-6.38-14.115-.095-3.077.615-5.996 1.691-8.853 1.877-4.356 4.56-8.3 7.839-11.715 5.747-6.057 12.864-10.78 20.15-14.78 9.022-4.886 18.545-8.712 28.372-11.642 16.431-5.471 33.584-8.576 50.912-8.898zm53.007 9.574c5.94 1.9 11.721 5.415 15.733 10.239 2.525 2.986 3.567 6.474 4.463 10.205.794 3.448-.518 7.438-1.831 10.622-4.587 9.697-13.412 17.445-22.27 23.199-14.262 9.196-31.16 15.225-47.496 19.547-2.62.733-5.252 1.375-7.963 1.645 18.753-5.38 36.447-12.825 52.304-24.348 6.874-4.947 12.938-10.825 17.496-18.004 2.677-4.39 4.514-9.168 4.097-14.402-.395-5.427-3.41-9.884-7.365-13.423-2.209-2.04-4.801-3.465-7.168-5.28z" fill="currentColor" fillOpacity="0.65"/><path d="M402.848 127.864c10.988-.175 23.334 1.138 33.195 6.322-4.328-1.166-8.605-2.394-13.067-2.964-15.26-2.09-31.246-.32-46.077 3.64-8.25 2.463-16.364 5.664-23.875 9.89-6.131 3.5-12.409 8.16-16.252 14.183-2.716 4.254-4.378 9.968-2.687 14.904 1.29 3.274 4.508 5.9 7.438 7.686 7.105 4.289 15.901 6.199 24.089 6.926 15.952 1.284 32.164-1.798 47.215-6.988 3.195-1.076 6.25-2.473 9.467-3.454-2.981 1.82-6.232 3.24-9.45 4.593-9.174 3.724-18.922 6.22-28.682 7.838-10.655 1.741-21.66 2.468-32.429 1.56-5.742-.512-11.659-1.56-17.062-3.623-3.889-1.504-7.81-3.719-10.583-6.897-3.195-3.662-4.942-8.525-4.18-13.4.71-4.755 3.527-9.027 6.767-12.47 5.223-5.561 11.99-9.934 18.724-13.439 17.784-9.219 37.478-13.755 57.449-14.307z" fill="currentColor" fillOpacity="0.79"/><path d="M477.6 156.81c4.34 4.069 8.802 8.053 12.831 12.431-2.462 1.426-5.01 2.677-7.545 3.95-43.147 22.038-86.316 44.037-129.457 66.075-2.034 1.071-4.085 2.097-6.187 3.026-7.291-11.878-14.504-23.802-21.818-35.663a59.063 59.063 0 0 1-2.08-3.742c3.94 1.048 7.732 2.429 11.777 3.071 15.525 2.761 32.238 1.443 47.74-1.02 5.77-.873 11.337-2.445 17.011-3.736 2.71-.27 5.342-.912 7.963-1.645 16.335-4.322 33.234-10.351 47.496-19.547 8.858-5.754 17.683-13.502 22.27-23.2z" fill="currentColor" fillOpacity="0.325"/><path d="M87.872 225.512c2.615-.243 5.285-.164 7.906-.074 1.352.062 2.778.558 3.127 2.012.35 2.524.096 5.156.152 7.703.04 11.659-.079 23.328.062 34.987 1.646-1.426 3.161-2.862 4.965-4.108 4.98-3.437 10.976-5.178 17.017-5.184 4.43-.028 9.19.716 13.101 2.908 4.379 2.378 7.58 6.925 9.275 11.523 1.325 4.824 1.505 10.115 1.426 15.096 0 15.22-.022 30.451.011 45.671-.028 1.02-.045 2.085-.417 3.043-.856.947-2.479.744-3.64.817-2.355-.045-4.795.158-7.128-.197-1.28-.237-1.33-2.08-1.397-3.094-.215-16.178-.57-32.322-.029-48.5.152-4.175-.45-8.215-2.85-11.731-2.621-3.855-7.09-5.99-11.716-5.985-6.74-.27-12.78 3.032-17.71 7.343-1.173.963-.88 2.225-.987 3.59.045 17.101-.005 34.203.029 51.305-.023 1.792.124 3.663-.175 5.438-.231 1.042-1.116 1.611-2.136 1.701-2.586.237-5.212.113-7.81.108-.873-.09-1.989.084-2.564-.744-1.02-1.415-1.335-3.06-1.324-4.784.04-32.874.011-65.765.017-98.64.034-2.406-.135-4.851.09-7.246.152-1.37 1.268-2.823 2.705-2.958zm376.363-.108c3.319-.028 6.716-.163 10.007.288.152 2.947.068 5.933.073 8.897.006 32.305 0 64.616.006 96.921-.034 2.851.27 5.494-.496 8.283-3.685.062-7.438.277-11.106-.045-1.972-.315-1.59-2.203-1.69-3.696.258-21.424.219-42.854.484-64.272 0-15.028.327-30.451.175-45.4.479-1.122 1.538-.829 2.547-.976zm23.847.271c1.938-.45 4.068-.26 6.051-.299 1.798.045 3.73-.152 5.489.265 1.33.558 1.25 2.643 1.33 3.843-.006 35.709 0 71.423 0 107.137-.124 1.273.084 3.364-1.787 3.217-3.296.057-6.677.209-9.956-.101-1.697-.299-1.494-1.786-1.584-3.122.028-36.052.006-72.16.011-108.218.023-.93.113-1.843.446-2.722zm-430.064 7.224c7.996 1.724 15.79 5.872 20.5 12.718 1.68 2.626 3.544 6.373 2.829 9.551-1.105 4.271-6.368 5.883-10.047 3.871-2.474-1.352-3.905-4.632-5.528-6.874-3.252-4.92-7.698-8.808-13.592-10.047-6.874-1.229-14.865-.35-20.748 3.662-5.674 3.81-9.36 9.506-11.855 15.767-3.043 7.866-4.469 16.465-3.793 24.89.575 9.967 2.778 20.409 8.188 28.935 4.79 7.618 12.295 13.394 21.08 15.54 5.703 1.37 11.681.745 17.09-1.453 4.514-1.741 8.262-4.452 12.493-6.672 1.381-.653 2.733-1.29 4.125-.248 1.803 1.375 1.595 3.747.58 5.545-1.904 3.161-4.98 5.736-8.085 7.675-7.258 4.513-16.088 6.39-24.563 6.379-11.484.039-22.839-4.773-30.829-13.017a50.278 50.278 0 0 1-11.59-17.71C.017 300.506-.654 288.948.502 277.397c1.047-9.749 4-19.328 9.956-27.228 3.55-4.801 8.013-8.526 12.887-11.912 2.457-1.69 5.134-2.902 7.946-3.883 8.548-2.952 17.907-3.51 26.726-1.476zM279.6 241.12c.49 1.065.462 2.435.49 3.59a2014.8 2014.8 0 0 0-.01 17.558c4.468.164 8.948-.05 13.416.085 1.127-.023 1.888.574 2.046 1.696.118 1.228.253 2.733-.237 3.888-.75 1.11-2.254.98-3.432 1.082-3.927.045-7.855-.034-11.788.017-.028 17.445 0 34.902-.017 52.354 0 3.629 1.06 8.182 4.424 10.154 2.98 1.578 7.207 1.347 10.464 1.91 2.085.147 3.127 3.139 1.78 4.62-1.594 1.832-4.198 2.598-6.559 2.593-4.215.028-8.582-.35-12.622-1.634-3.15-1.043-6.12-2.761-7.77-5.748-2.035-3.781-3.027-8.193-3.01-12.481.012-17.249-.005-34.497.012-51.746-3.24-.045-6.475 0-9.715-.163.073-2.136.101-4.271.203-6.407 3.172-.242 6.345-.102 9.517-.282.08-3.55-.242-7.179.158-10.706.321-2.26 2.3-3.314 3.866-4.688 2.22-1.742 4.051-3.889 6.198-5.697.862-.688 1.837-1.054 2.586.005zm-42.42 19.773c4.17-.107 8.43-.191 12.392 1.302 2.198.862 4.3 2.226 5.038 4.592.597 2.142 1.104 4.925-.395 6.813-1.578 2.113-4.316 2.293-6.728 1.921-1.78-.32-3.127-2.287-4.339-3.516-2.739-3.183-7.55-4.35-11.568-3.606-3.071.586-4.925 3.606-5.218 6.548-.626 6.976-.49 14.064-.536 21.063-.011 11.456.124 22.917.22 34.373 0 3.212.31 6.193-.231 9.382-3.353.175-6.717.135-10.075.135-.936-.084-2.012.119-2.688-.67-.372-2.147-.175-4.418-.209-6.593.012-19.7.023-39.506-.005-59.195.005-2.321.637-4.553 2.304-6.226 2.423-2.485 6.317-3.663 9.591-4.497 4.08-.924 8.26-1.707 12.448-1.826zm299.238-.023c6.255.429 12.848 2.452 17.08 7.332 1.814 2.192 3.69 5.15 3.735 8.069.102 3.127-3.24 5.517-6.159 5.2-1.769-.264-3.093-1.374-4.09-2.8-1.567-2.254-2.722-4.609-4.616-6.666-1.927-2.175-4.784-3.51-7.64-3.865-4.886-.282-10.904 3.15-11.518 8.384-.462 2.762-.417 5.511 1.003 7.996 1.763 3.14 5.094 5.399 8.255 6.96 6.92 3.28 14.51 6.756 20.342 11.77 4.074 3.489 6.942 8.149 7.168 13.61.163 7.212-2.136 14.932-7.951 19.575-3.759 3.009-8.616 4.48-13.36 4.83-5.833.439-12.014-.102-17.413-2.497-4.203-1.843-7.967-4.987-10.047-9.123-1.014-2.034-1.86-4.288-1.504-6.604.27-1.905 1.51-3.928 3.353-4.66 2.445-.75 5.127.23 6.981 1.887 1.426 1.257 2.063 3.257 2.987 4.903 1.786 3.364 4.806 6.102 8.435 7.314 3.979 1.364 8.56.637 11.912-1.888 2.339-1.752 3.415-4.964 4.024-7.714.834-4.305-1.172-8.193-4.22-11.106-5.106-4.993-12.826-7.157-19.064-10.803-5.759-3.25-11.095-7.471-12.954-14.115-2.237-8.56 1.887-17.395 8.813-22.489 4.665-3.049 10.999-3.815 16.448-3.5zm-232.745 2.176c2.158.084 4.525-.226 6.615.332.851.688 1.262 1.967 1.612 2.97 4.818 16.685 9.912 33.308 14.854 49.959a46.259 46.259 0 0 0 1.408 4.006c4.773-16.25 9.433-32.541 14.16-48.81.745-2.4 1.235-4.952 2.25-7.263.653-1.842 3.211-.974 4.71-1.059 5.82 19.22 11.287 38.577 17.158 57.78 1.065-2.676 1.69-5.409 2.474-8.165 4.48-15.76 8.875-31.595 13.637-47.277.445-.969.405-2.253 1.735-2.304 2.953-.344 6.03-.231 8.977.146-.293 3.33-1.449 6.216-2.373 9.388-6.53 21.627-13.242 43.226-19.722 64.858-.282.783-.552 1.578-1.195 2.136-2.597.259-5.533.242-8.136.045-1.032-.006-1.1-1.155-1.432-1.894-4.265-14.295-8.672-28.569-12.949-42.859a71.237 71.237 0 0 0-1.634-4.897c-.97 2.384-1.657 4.835-2.406 7.286-3.905 12.594-7.81 25.183-11.895 37.715-.367 1.104-.727 2.226-1.206 3.29-.304.57-.603 1.404-1.38 1.376-2.367.214-4.774.056-7.146.017-.885-2.198-1.583-4.452-2.27-6.717a13883.976 13883.976 0 0 0-22.084-69.197c1.944-1.251 4.006-.766 6.238-.862zM426.532 260.635c5.719.124 11.388 1.82 15.951 5.325 5.19 3.967 8.672 9.804 10.436 16.037.626 2.254 1.048 4.744.411 7.038-.366 1.228-1.019 2.32-2.327 2.682-2.09.558-4.305.704-6.44 1.03-13.692 1.91-27.38 3.867-41.073 5.766.158 7.798 2.22 16.262 6.937 22.596 4.187 5.708 11.304 9.033 18.37 8.306 8.486-.947 16.137-7.31 19.496-15.03.84-1.701 1.916-3.222 4.08-2.72 2.394.59 2.535 4.113 2 6.029-2.434 8.137-7.055 16.003-14.644 20.274-6.655 3.77-14.296 4.024-21.667 2.655-6.136-1.184-11.833-4.2-15.958-8.926-5.122-5.793-7.663-13.338-9.004-20.833-1.837-9.382-1.274-19.361 1.825-28.417 2.378-6.79 6.34-12.87 12.43-16.871 5.636-3.707 12.505-5.105 19.177-4.941zm-5.09 8.97c4.205-.377 8.43.643 11.57 3.573 3.612 3.426 5.133 7.91 5.917 12.712-4.677.846-9.405 1.387-14.105 2.136-7.133.94-14.234 2.243-21.39 2.975.727-5.928 2.8-12.295 7.072-16.634 2.896-2.975 6.824-4.52 10.937-4.762zm-242.307-8.655c4.632-.197 9.585.23 13.924 1.978 4.576 1.893 7.737 5.922 9.163 10.594 1.335 4.164.992 8.058 1.025 12.346 0 13.907-.005 27.814.006 41.727.006 2.62-.518 5.127-2.265 7.162-2.215 2.597-5.58 3.74-8.701 4.84-4.846 1.747-10.3 1.696-15.4 1.769-5.9.102-11.946-.445-17.186-3.37-4.07-2.253-6.982-5.967-8.177-10.458-1.465-5.68-.79-12.222 2.559-17.136 2.41-3.64 6.249-6.452 9.979-8.627 7.996-4.525 17.716-6.936 26.574-9.162.045-4.672.045-9.382-.343-14.042-.3-3.522-2.051-7.05-5.286-8.723-2.795-1.527-6.514-1.167-9.517-.547-3.088.699-5.027 3.173-6.638 5.714-1.375 2.175-1.916 4.739-3.23 6.92-1.425 2.079-4.614 3.78-7.06 2.558-2.135-1.161-3.933-3.41-3.95-5.928-.084-3.708 2.09-7.235 4.694-9.715 5.42-5.01 12.51-7.551 19.829-7.9zm11.552 38.385c.034 8.103-.017 16.206.028 24.315.012 2.057-.112 3.99-1.28 5.759-1.33 2.074-3.583 3.088-5.938 3.505-2.361.366-4.807.524-7.19.332-4.26-.394-8.312-2.761-10.323-6.604-1.646-3.217-2.722-7.09-1.798-10.678.868-3.302 2.947-6.351 5.78-8.272 2.864-1.961 6.12-3.42 9.327-4.722 3.697-1.448 7.506-2.835 11.394-3.635z" fill="currentColor"/></svg>
