<svg fill-rule="evenodd" role="img" viewBox="0 0 560 440" xmlns="http://www.w3.org/2000/svg"><title>Digitas</title><g fill="currentColor"><path d="M275.12 177.56c2.99-1.503 6.65-.8 8.891 1.69 2.89 3.02 2.63 7.94-.5 10.69-2.75 2.672-7.391 2.62-10.152-.009-3.84-3.352-2.94-10.233 1.76-12.372h.001zm100.028.01c5.69-2.983 12.502 2.667 10.662 8.77-1.51 5.381-8.292 7.491-12.443 3.56-3.94-3.57-2.97-9.982 1.78-12.332l.001.002zm43.027 5.98c-.52 5.33-.51 10.661-.62 16.003 6.611-.011 13.233.009 19.854-.02 0 2.79 0 5.58.01 8.37-6.671-.01-13.353 0-20.034-.01-.14 12.473-.49 24.984-.24 37.456.09 4.003 1.09 8.044 5.191 9.663 5.231 1.741 11.882-.14 16.953-1.89-.09 2.96-.24 5.921-.57 8.87-7.591 2.662-17.403 4.352-24.814.392-5.681-3.12-6.892-9.203-7.202-15.184-.22-13.112.58-26.183.55-39.306-3.33 0-6.66.008-9.991.02l.03-8.4c3.35.04 6.7.04 10.061.04.09-5.183.12-10.365.21-15.545 3.541-.188 7.072-.371 10.612-.46z"/><path d="M173.611 176.897c13.093.031 26.195-.029 39.287.031 10.232.171 20.554 2.23 28.806 8.623 8.151 6.239 12.302 15.79 13.502 25.803.99 10.434.31 21.304-4.5 30.795-3.441 6.932-9.252 12.443-16.194 15.824-7.961 3.851-16.833 5.202-25.614 5.21-11.762.06-23.525-.008-35.287.04v-8.38c3.04 0 6.111.129 9.152-.08.31-1.482.27-2.912.28-4.423-.05-21.714.32-43.429.26-65.14-3.22.208-6.441.268-9.672.26-.01-2.85-.02-5.71-.02-8.563zm20.694 8.411c4.18-.22 8.402-.08 12.592-.057 6.462.349 12.383.149 18.524 2.459 7.011 2.58 12.552 7.752 15.512 14.622 4.181 9.662 4.201 21.186 1.03 31.145-2.57 7.972-8.01 14.793-15.842 18.085-10.592 4.489-21.404 3.041-32.626 3.29.35-18.163-.07-36.365.58-54.52.09-4.99-.24-10.061.23-15.024z"/><path d="M556.54 201.955c.06 5.196.26 10.399.34 15.61-3.11-.009-6.22-.009-9.331 0-.09-3.15-.17-6.31-.24-9.46-7.052-2.952-16.653-3.284-22.844 1.739-3.991 3.28-3.691 9.522.52 12.463 5.37 3.67 13.552 3.62 19.753 5.53 5.501 1.611 11.512 4.041 13.943 9.672 3.03 7.72.77 17.543-6.211 22.385-6.202 4.46-15.133 5.251-22.525 4.72-6.03-.591-12.262-1.27-17.843-3.7-.17-5.423-.45-10.833-.54-16.253 3.2 0 6.401 0 9.592.02.07 3.101-.07 6.27.29 9.351 4.88 2.27 11.222 3.113 16.553 2.65 5.47-.742 11.912-4.152 12.202-10.35-.1-4.512-3.83-7.102-7.721-8.424-7.432-2.37-15.853-3.029-23.324-6.92-3.491-1.82-6.272-4.752-7.242-8.64-1.22-5.323-.58-11.753 2.93-16.133 3.071-3.972 7.532-6.093 12.333-7.153 9.532-2.19 20.224-.18 29.365 2.89v.003zm-291.992-2.413c6.74.011 13.472.011 20.203-.009-.14 18.451-.3 36.896-.39 55.339l8.202-.029c-.01 2.798-.01 5.6-.02 8.392-8.972-.051-17.943-.032-26.925-.012v-8.38c2.85.009 5.711.009 8.571.009.06-15.653.28-31.306.4-46.958-3.35 0-6.7.008-10.051.008.01-2.79.01-5.579.01-8.36zm100.068.011c6.731-.02 13.452.02 20.173-.02-.17 18.443-.23 36.885-.44 55.33 2.77-.011 5.531-.011 8.302-.02-.01 2.798-.02 5.59-.02 8.392-9.012-.051-18.023-.02-27.035-.02 0-2.793-.01-5.574-.01-8.363 2.87 0 5.741 0 8.611-.009.2-15.644.21-31.297.5-46.95-3.36 0-6.73.01-10.091 0 .01-2.78.01-5.561.01-8.34z"/><path d="M478.936 198.651c5.001.751 9.802 2.541 13.123 6.51 3.53 4.232 4.57 9.794 4.53 15.165-.01 11.512-.35 23.025-.39 34.537 2.37-.011 4.751-.011 7.122-.02 0 2.798 0 5.59-.01 8.392-5.571-.051-11.142-.02-16.713-.032-.04-4.59.63-9.102 1-13.67-1.99 5.53-4.951 10.361-10.422 12.98-6.771 3.192-16.153 3.02-22.674-.729-7.881-4.34-9.482-15.552-6.291-23.264 2.22-5.271 7.021-7.881 12.282-9.383 8.502-2.27 17.923-2.19 26.645-2.241-.02-5.04.22-11.65-2.82-15.973-2.961-4.269-8.672-4.811-13.443-4.688-4 .348-8.702.54-12.302 2.438-.25 3.272-.06 6.582-.11 9.862-3.11-.008-6.211 0-9.322.012-.07-5.183-.01-10.354-.06-15.533 9.552-3.752 19.573-6.122 29.855-4.363zm7.962 35.406c-.09 6.453-1.37 12.523-5.941 17.314-4.771 4.94-12.593 7.31-18.894 3.82-5.45-3.029-6.941-10.861-2.99-15.66 2.2-2.493 5.57-3.661 8.721-4.332 6.381-1.22 12.643-1.21 19.104-1.142zM71.023 143.193c21.264-1.722 42.988 5.81 58.52 20.472 13.133 12.144 21.804 28.896 23.915 46.67 2.1 15.941-1.03 32.565-8.772 46.647-12.712 23.585-37.987 39.329-64.812 40.028-19.233.82-38.546-5.93-53.08-18.565-9.17-7.89-16.462-17.911-21.043-29.115-6.221-15.03-7.411-32.122-3.49-47.898 4.25-17.343 14.772-32.964 29.175-43.509 11.522-8.52 25.324-13.562 39.587-14.733v.003zm49.516 20.966c-5.738 4.497-11.402 9.18-16.61 14.288-2.06-3.629-4.511-.708-7.792-1.65l-.03-2.93a208 208 0 0 1-1.85 2.421c.37 1.26.74 2.522 1.11 3.79-3.22-2.25-3.11-2.24-2.22-6.25-1.57 1.461-2.73 2.649-3.45 4.69-4.742.56-8.922 2.09-11.193 6.57-1.13 2.97-1.83 5.994-3.48 8.752 1.55-1.04 3.12-2.07 4.69-3.09-1.62 4.58-5.17 6.873-8.001 10.582 1.95-.96 3.97-1.719 6.041-2.29-3.39 2.99-2.66 6.882-4.93 10.422 2.66-.66 5.03-3.13 7.26-.291-3.61 2.041-7.08 4.623-10.901 6.233-5.371.58-11.623-.822-16.593 1.59-2.31 1.02-3.741 2.75-5.421 4.529-6.612-1.85-13.543-.149-18.374 4.731-5.67 5.582-7.111 14.545-3.33 21.586 1.46 3.098 4.65 5.19 5.76 8.349.23 3.072-1.66 4.271-4.03 5.553a138.71 138.71 0 0 0-3.47-.822c4.03 4.663 10.321 6.273 15.812 3.084 3.76-2.342 4.111-5.962 4.961-9.954 2.18 1.53 4.4 2.998 6.631 4.44.23.943.45 1.882.67 2.81l-.796.428-.528.286-.796.428c.82 2.561 1.75 5.06 2.78 7.54 1.36-.91 2.711-1.83 4.061-2.749-.09-2.992.24-6.224-.48-9.131-1.7-2.961-4.56-5.322-6.751-7.932 4.84-1.53 7.291-2.932 10.592-6.801-1.21 3.712-2.42 7.42-3.69 11.101 3.76 2.65 7.56 5.25 11.271 7.96.97 2.97.8 3.313 4.001 4.14-.01 1.171-.03 2.342-.04 3.524 3-.031 6.011-.031 9.012-.04-.82-1.853-1.65-3.692-2.5-5.533-1.821-.549-3.411-1.008-4.722-2.479-3.17-3.272-6.93-5.842-10.232-8.951l.01-.651c2.751-3.96 6.232-7.424 9.152-11.273a861.19 861.19 0 0 1-.04-5.11c6.241 2.43 12.812 2.529 19.354 1.521.36 4.397 3.1 7.15 5.18 11.01 3.531 5.57 6.442 11.673 10.522 16.855.03 1.55.04 3.09.06 4.64 2.83-.009 5.671-.009 8.502-.072-2.11-4.597-5.561-8.209-7.901-12.671-1.82-3.41-4.171-6.622-5.681-10.171-1.17-4.283-1.62-8.771-2.591-13.111 5.03 0 10.072-.012 15.113 0-.07 1.838.15 3.98-.54 5.71-.96 1.21-2.69 1.87-3.991 2.69a78.658 78.658 0 0 0-.4 8.68c1.91-1.128 3.73-2.05 5.19-3.78 1.691-1.89 2.291-4.5 3.011-6.87 1.29-4.612 2.67-9.194 4.021-13.791-5.29-.063-10.572-.032-15.863-.023-.11-2.35-.08-4.569-.89-6.822-1.12-2.718-3.18-4.468-3.71-7.46-1.35-5.74-2.581-11.502-4.051-17.224 2.49-.3 4.94-.879 7.431-1.15 1.98-.14 4.03.722 6.031.93 2.6.03 4.52-3.38 3.1-5.559-.83-1.53-2.38-1.73-3.85-2.46-2.28-.943-4.19-2.33-5.541-4.412 2.22.16 4.28.87 6.441 1.35l-3.43-4.14c4.64-5.01 9.241-10.193 13.192-15.784l-.273.214zm-38.654 82.66c.48.943.97 1.882 1.46 2.822.95.56 1.91 1.11 2.88 1.662-.98.44-1.96.888-2.94 1.339-.47 1-.93 1.998-1.39 3.01-.48-1.009-.96-2.02-1.44-3.042-.97-.44-1.95-.868-2.92-1.307.96-.543 1.91-1.103 2.85-1.67l.33-.563 1.17-2.25zm34.916-41.658c1.18 1.633 2.45 2.941 4 4.203l-2.25.543c-.54.988-1.08 1.97-1.62 2.946-.36-.908-.71-1.819-1.06-2.74l-2.63-.929 2.7-1.713c.28-.768.57-1.539.86-2.307v-.003zm-87.086-1.507l.01-.02c.88 1.019 1.79 1.97 2.821 2.83-.93.941-1.85 1.87-2.73 2.86-.95-1-1.92-1.981-2.881-2.97.55-.322 1.09-.63 1.63-.962.39-.58.77-1.159 1.15-1.741v.003zM54.72 192.34c.38 1.04.77 2.07 1.18 3.1 1.23.692 2.51 1.3 3.77 1.93-1.26.612-2.53 1.22-3.79 1.84-.38 1.082-.77 2.161-1.15 3.24-.62-1.099-1.24-2.21-1.85-3.329l-3.481-1.742c1.15-.58 2.3-1.187 3.43-1.81.65-1.068 1.28-2.15 1.891-3.23zm10.622-20.473c1.01.749 1.96 1.57 2.94 2.359-.97.87-1.94 1.73-2.93 2.57a215.6 215.6 0 0 1-2.76-2.57c.89-.828 1.75-1.659 2.75-2.359zm259.577 26.946c4.09-.123 7.921 1.239 12.012 1.1 6.48-.152 12.962-.2 19.443-.392 0 2.92 0 5.842-.01 8.763-3.57-.311-7.141-.623-10.682-1.25 7.342 7.669 8.142 20.312 1.56 28.663-4.8 6.022-12.812 8.892-20.323 9.143-4.01.089-8.872.708-11.762 3.82-1.23 1.28-1.11 3.121-.31 4.612 2.05 1.599 4.56 1.95 7.041 2.45 7.061 1.19 14.143 2.321 21.194 3.54 5.05.971 10.682 2.79 13.462 7.481 2.86 4.951 2.3 11.781-.56 16.624-2.64 4.6-7.441 7.58-12.292 9.41-8.972 3.17-18.643 3.253-27.935 1.582-5.211-1.03-11.092-3.12-14.803-7.072-4.8-5.051-4.74-13.771.18-18.714 3.42-3.489 7.722-4.73 12.263-6.101-2.661-.829-5.141-1.371-7.122-3.47-3.16-3.012-3.65-8.571-.45-11.723 2.62-2.599 6.011-3.29 9.492-3.99-5.321-1.87-10.092-4.322-13.022-9.37-4.631-8.124-4.071-19.796 2.48-26.786 5.07-5.67 12.662-8.263 20.144-8.323v.003zm3.92 67.679c4.611.762 9.382 1.102 13.893 2.341 2.4.72 4.54 1.99 5.31 4.52 1.111 4.083-1.58 8.112-4.98 10.165-7.962 4.928-18.143 5.028-26.935 2.541-3.38-1.014-7.001-2.932-8.522-6.293-.85-2.481-.74-5.67.93-7.823 1.921-2.679 5.242-4.46 8.252-5.6 3.77-1.61 8.102-.35 12.052.149zm-9.431-58.46c6.94-2.09 15.902-.839 20.413 5.351 4.151 5.54 3.34 13.554-1.34 18.503-4.67 5.082-12.262 6.333-18.703 4.551-6.962-2.219-11.832-9.2-10.852-16.544.68-5.89 4.86-10.27 10.482-11.86z"/></g></svg>
