<svg fill-rule="evenodd" role="img" viewBox="0 0 560 440" xmlns="http://www.w3.org/2000/svg" aria-label="Freeform Labs"><g fill="currentColor"><path d="M169.694 158.311c12.525.122 25.049.102 37.573.023-.02 3.305-.04 6.61-.08 9.938-8.837.02-17.694 0-26.531 0 0 4.65.02 9.3.02 13.947 7.414.02 14.828.02 22.244.082l-.06 8.836c-7.436 0-14.85-.02-22.264.04.1 7.895.08 15.79.1 23.686l-11.042.122c.04-18.899-.02-37.775.04-56.674zm93.883.283c12.707-.602 25.471.04 38.177-.263 0 3.308-.04 6.636-.08 9.941-9.178.02-18.377-.02-27.556.04-.02 4.63-.02 9.26 0 13.91 7.957.04 15.913.016 23.868.016 0 2.986.02 5.952.02 8.919-7.976-.02-15.951-.04-23.927.059 0 4.67.02 9.359.06 14.048 9.378-.02 18.757 0 28.135-.02.04 3.227.08 6.453.14 9.679-13.025.02-26.05.062-39.077-.02.321-18.754-.26-37.574.24-56.309zm46.152 0c12.705-.582 25.49-.02 38.216-.22l-.06 9.497c-9.26.625-18.377.362-27.655.46v13.888c7.975.042 15.931.02 23.887.042.02 2.963.02 5.93.02 8.896-7.976-.02-15.952-.04-23.947.059.02 4.67.04 9.359.08 14.029 9.558.02 19.097-.02 28.656.059.02 3.19.02 6.373.02 9.58-13.146.098-26.312.081-39.457 0 .32-18.758-.24-37.555.24-56.29zm44.508-.26c12.504.08 25.03.099 37.534-.023 0 3.328-.04 6.636-.08 9.964-8.858.017-17.696.017-26.553 0 0 4.647.02 9.297.02 13.944 7.435.042 14.87.02 22.284.042l-.06 8.915c-7.435-.04-14.87-.059-22.304 0 .1 7.916.08 15.811.1 23.71-3.667.037-7.335.056-11.002.08.06-18.877 0-37.756.06-56.632zm149.134.22c3.686-.282 7.434-.243 11.122-.263 5.73 10.662 11.382 21.382 16.853 32.185 5.89-10.523 11.442-21.244 16.933-31.964 3.886-.099 7.774-.158 11.662-.24.18 18.899.04 37.794.08 56.693-3.627-.023-7.234-.042-10.861-.082.14-12.102.3-24.246-.12-36.37-5.331 8.277-8.818 17.757-14.469 25.771a106.04 106.04 0 0 1-5.53 1.783c-5.192-9.38-10.1-18.876-15.15-28.337-.1 12.404 0 24.828-.02 37.235-3.607-.023-7.235-.042-10.842-.082.44-18.757-.3-37.594.34-56.332zM.02 153.122c44.828 0 89.656-.099 134.484.04.06 44.568.04 89.118 0 133.683-44.828.099-89.676.04-134.504.02.02-44.589-.02-89.154.02-133.743zm12.384 12.404c36.532-.04 73.044-.04 109.576-.02.02 36.351-.02 72.702.02 109.053-36.532.023-73.084.043-109.616 0 .06-36.35.02-72.682.02-109.033zm200.614-6.955c8.397-.418 16.914-.296 25.31-.099 11.423.063 19.64 12.086 17.234 22.845-1.122 6.032-5.27 9.3-9.298 13.45 4.288 6.69 8.497 13.404 12.745 20.116a784.85 784.85 0 0 1-12.445.02c-3.887-6.212-7.915-12.365-11.923-18.495-3.687.04-7.374.06-11.042.08-.04 6.132-.02 12.265.04 18.415-3.606.023-7.234.043-10.86.043.28-18.778-.262-37.617.24-56.372zm10.601 9.642c5.671.24 12.044-.641 17.515.96 5.51 4.953 5.19 12.907-1.002 17.074-5.45.763-11.082.362-16.573.401.02-6.15.02-12.282.06-18.435zm190.174-9.218c13.827-3.167 27.033 5.65 31.222 18.817 5.05 14.647-3.428 32-18.517 36.19-13.747 3.989-27.894-3.986-32.443-17.354-6.293-15.37 3.447-34.167 19.738-37.653zm.12 10.04c5.05-1.483 11.223-1.144 15.17 2.703 8.718 7.817 8.537 22.566-.28 30.221-5.47 4.71-14.268 4.427-19.478-.562-9.419-8.517-7.816-27.433 4.588-32.362zm38.536-10.681c8.737.161 17.515-.263 26.232.161 11.743.421 19.959 14.187 15.931 24.907-1.583 4.989-5.19 7.837-8.697 11.464 4.268 6.61 8.457 13.266 12.685 19.918-4.088.099-8.156.161-12.224.22-4.028-6.149-8.016-12.364-12.024-18.537l-10.982-.059c0 6.15 0 12.302.02 18.455-3.646.043-7.314.063-10.96.082.02-18.876-.02-37.735.02-56.611zm11.122 10.08c5.39-.323 11.081-.626 16.412.4 6.192 3.506 6.112 15.63-1.262 17.495-5.07.622-10.3.32-15.41.32.08-6.052-.18-12.165.26-18.22z"/><path d="M37.774 191.058c19.218-.283 38.457.04 57.653-.099 0 4.045 0 8.113.02 12.161-19.457-.02-38.896-.02-58.334 0 .1-3.966.06-8.136.66-12.062zm-.46 22.625c11.722.02 23.446-.043 35.168.059.02 4.21.02 8.419 0 12.624-11.722.142-23.445.06-35.168.08-.02-4.25-.02-8.495 0-12.763zm137.25 12.743c1.503 18.175.36 36.633.68 54.868 10.501.161 21.242-.68 31.683.421l1.824 2.184c-12.225 2.104-25.25.523-37.674.963.32-17.955-.28-36.009.24-53.948a45.793 150.564 0 0 1 3.246-4.488zm179.232 10.881c-7.315-2.085-13.347-5.89-21.122-5.429-4.128.44-8.898 1.322-11.802 4.548-3.308 3.946-3.468 11.42 1.382 14.23 8.255 4.606 20.32 3.945 28.415 9.437 6.413 4.308 6.713 14.226 1.243 19.419-4.93 4.93-12.685 5.748-19.318 5.37-8.317-.743-16.713-3.124-21.02-10.964 11.381 4.249 19.638 10.303 32.523 6.05 6.913-2.022 9.859-10.519 4.709-15.89-8.217-6.59-22.144-5.03-30.62-11.377-6.914-6.054-3.988-17.396 3.627-21.445 9.96-5.15 25.31-4.048 31.983 6.051zM234.801 227.307c4.249 3.226 5.852 9.701 8.057 14.43 5.89 14.847 13.045 29.277 18.155 44.408-8.818-3.808-7.374-14.67-13.226-19.8-8.296-.94-16.953-.582-25.31-.3-3.307 5.13-4.93 11.543-7.875 16.913a96.385 316.905 0 0 1-3.888 1.763c2.324-9.478 7.214-18.396 10.8-27.476 4.45-9.918 7.937-20.457 13.287-29.938zm.722 6.495c4.268 9.438 8.076 19.073 12.104 28.616-8.217.099-16.432.099-24.649-.023 4.229-9.497 7.956-19.257 12.545-28.593zM37.734 237.126c6.633-.299 13.286-.078 19.92-.078-.02 4.044 0 8.096.02 12.124-6.854.02-13.707.02-20.561.02.1-3.989.06-8.116.62-12.066zM266.664 228.59c9.078-.48 18.476-.642 27.554.02 6.513.64 10.44 7.615 10.922 13.568.24 5.79-2.926 9.635-6.112 14.025 4.269 3.588 8.276 6.455 8.957 12.447 1.083 8.155-5.25 15.37-13.346 16.031-9.399.56-18.897.08-28.316.158.261-18.715-.48-37.554.341-56.25zm4.229 30.201a726.517 2388.713 0 0 1 23.345-.062c5.03.062 9.439 5.011 9.7 9.898.64 5.735-3.448 11.605-9.319 12.345-8.035.684-16.212.18-24.287.18.04-7.412-.421-15.028.56-22.361zm.06-26.354c7.975-.862 16.773-1.342 24.608.562 7.956 5.23 7.174 17.216-1.303 21.504-7.795 1.24-16.03.398-23.926.48.04-7.432-.441-15.15.62-22.546z"/></g></svg>
