<svg fill-rule="evenodd" role="img" viewBox="0 0 560 440" xmlns="http://www.w3.org/2000/svg"><title>Grand Union</title><path d="M553.874 248.508c-.499-.357-.902-.752-1.422-1.582-.77-1.185-1.527-3.394-1.846-5.197a20.472 20.472 0 0 1-.281-2.042c-.008-.098-.012-.177-.016-.23v-98.16h-43.94v81.84c0 .004 0 .027-.01.246.028 1.68-1.08 10.525-4.57 16.236-1.726 2.934-3.67 5.132-6.496 6.862-2.847 1.703-6.926 3.291-14.412 3.33-8.243-.068-12.336-1.925-15.248-3.866-2.174-1.51-3.816-3.353-5.284-5.695-2.178-3.462-3.64-8.105-4.31-11.766a41.91 41.91 0 0 1-.585-4.33 16.62 16.62 0 0 1-.057-.954v-65.487h-35.16c0-18.978-5.779-36.533-15.575-50.937.364-1.96 1.212-4.665 2.119-5.784.572-.792.912-1.102 1.634-1.512.753-.376 2.161-1.01 5.675-1.04V52.851c-11.53-.066-22.269 3.201-30.483 8.956-6.169 4.262-10.775 9.627-14.012 14.862-.028.057-.06.112-.091.17-10.554-4.855-22.223-7.574-34.51-7.58-47.093.014-85.237 39.595-85.251 88.454.014 48.857 38.159 88.432 85.25 88.45 1.969 0 3.919-.093 5.86-.23v.23c25.392.045 45.947 21.375 45.992 47.72-.045 26.343-20.601 47.671-45.992 47.721-25.392-.05-45.948-21.378-45.996-47.72h-43.942c.014 51.538 40.259 93.296 89.937 93.311 49.678-.015 89.916-41.773 89.93-93.312a96.74 96.74 0 0 0-2.563-22.157c3.536 4.378 7.835 8.562 13.036 12.157 10.438 7.286 24.14 11.589 39.625 11.525 15.485.064 29.183-4.24 39.623-11.525a59.056 59.056 0 0 0 3.076-2.269 48.513 48.513 0 0 0 5.92 4.831c8.13 5.687 18.737 8.963 30.137 8.963h.341v-45.596c-4.291-.07-5.414-.901-6.103-1.304zm-218.88-47.94c-22.808-.046-41.265-19.199-41.308-42.855.043-23.662 18.5-42.818 41.308-42.859 22.8.04 41.259 19.196 41.3 42.859-.041 23.656-18.5 42.809-41.3 42.856zm60.615 19.317c6.404-6.725 11.767-14.519 15.846-23.084v26.567c.067 1.12.02 6.866 1.687 15.033a92.168 92.168 0 0 0-17.533-18.516z" fill="currentColor"/><g fill="currentColor"><path d="M241.12 239.138c-1.362 0-2.525.5-3.49 1.504-.964 1.004-1.444 2.214-1.444 3.63 0 1.476.486 2.729 1.46 3.763.974 1.033 2.15 1.55 3.531 1.55 1.342 0 2.495-.505 3.46-1.52.964-1.013 1.446-2.238 1.446-3.675 0-1.457-.486-2.696-1.461-3.72-.975-1.02-2.141-1.532-3.502-1.532zM237.236 252.359h7.765v32.11h-7.765zM220.07 251.533c-1.496 0-2.958.3-4.388.903-1.43.602-3.024 1.674-4.786 3.213v-3.29h-7.765v32.11h7.765v-12.886c0-3.337.113-5.508.34-6.512.435-1.925 1.217-3.433 2.343-4.525 1.125-1.09 2.473-1.635 4.044-1.635 1.21 0 2.226.329 3.05.987.823.658 1.4 1.615 1.73 2.874.331 1.258.497 3.803.497 7.635v14.06h7.68V263.25c0-3.7-.9-6.494-2.698-8.383-2.14-2.222-4.743-3.334-7.811-3.334zm68.757.826v32.11h7.764v-12.886c0-3.337.115-5.508.341-6.512.436-1.925 1.216-3.433 2.342-4.525 1.124-1.09 2.473-1.635 4.044-1.635 1.211 0 2.228.329 3.051.987.823.658 1.4 1.615 1.73 2.874.332 1.258.498 3.803.498 7.635v14.06h7.68V263.25c0-3.7-.9-6.494-2.697-8.383-2.14-2.222-4.744-3.335-7.812-3.335-1.497 0-2.958.3-4.39.903-1.43.602-3.024 1.674-4.785 3.213v-3.29h-7.766zm-22.207 32.937c3.016 0 5.775-.744 8.277-2.23 2.503-1.485 4.48-3.546 5.931-6.182s2.175-5.47 2.175-8.5c0-3.01-.72-5.814-2.161-8.41-1.44-2.597-3.447-4.654-6.015-6.168-2.57-1.515-5.315-2.273-8.235-2.273-4.04 0-7.616 1.456-10.723 4.369-3.547 3.344-5.32 7.525-5.32 12.542 0 4.684 1.569 8.662 4.708 11.936 3.137 3.277 6.925 4.916 11.363 4.916zm-5.927-23.566c1.604-1.743 3.615-2.612 6.027-2.612 2.47 0 4.498.86 6.084 2.582 1.586 1.722 2.378 3.96 2.378 6.714 0 2.755-.808 5.007-2.422 6.758-1.614 1.752-3.638 2.627-6.068 2.627-2.431 0-4.44-.866-6.027-2.598-1.585-1.73-2.378-3.994-2.378-6.787-.001-2.715.801-4.943 2.406-6.684zm-72.093 6.358c0 3.033-.162 5.01-.485 5.932-.437 1.24-1.107 2.18-2.01 2.82-.903.638-2 .959-3.293.959-1.293 0-2.381-.326-3.266-.975-.883-.648-1.525-1.558-1.925-2.73-.4-1.17-.599-3.26-.599-6.27v-15.465h-7.85v13.37c0 5.133.304 8.676.91 10.622.853 2.816 2.328 5.009 4.423 6.582 2.096 1.575 4.84 2.362 8.235 2.362 3.128 0 5.707-.675 7.738-2.023 2.028-1.347 3.564-3.28 4.608-5.8.852-2.064 1.279-5.902 1.279-11.51v-13.605H188.6z"/></g><path d="M24.234 255.89c-1.593-1.555-3.181-2.671-4.764-3.35a12.684 12.684 0 0 0-5.049-1.018c-3.812 0-7.092 1.396-9.842 4.19-3.033 3.092-4.55 7.183-4.55 12.278 0 4.762 1.43 8.699 4.295 11.806 2.864 3.109 6.372 4.663 10.524 4.663 1.896 0 3.593-.31 5.091-.93s2.93-1.637 4.296-3.055c0 2.598-.261 4.425-.782 5.488-.523 1.064-1.418 1.93-2.688 2.599s-2.948 1.003-5.035 1.003c-1.632 0-3.043-.23-4.238-.695-1.194-.462-2.171-1.145-2.93-2.05H0c.683 2.186 1.735 4.038 3.157 5.564 1.422 1.525 3.167 2.682 5.233 3.468 2.067.787 4.619 1.18 7.652 1.18 5.689 0 9.945-1.731 12.77-5.194 2.106-2.557 3.158-6.55 3.158-11.983V252.35h-7.737v3.541zm-1.947 18.77c-1.565 1.673-3.552 2.508-5.96 2.508-2.465 0-4.512-.855-6.144-2.568-1.63-1.709-2.445-3.903-2.445-6.58 0-2.577.796-4.718 2.39-6.419 1.591-1.701 3.612-2.553 6.057-2.553 2.485 0 4.514.838 6.088 2.508 1.573 1.674 2.36 3.847 2.36 6.523 0 2.715-.783 4.908-2.346 6.58zm25.851-21.9c-1.195.828-2.153 2.039-2.874 3.63v-4.042h-6.656v32.11h7.708V271.47l-.028-1.563c0-4.485.412-7.496 1.237-9.032.825-1.534 1.835-2.3 3.03-2.3.587 0 1.337.235 2.246.708l2.418-6.937c-1.1-.549-2.153-.826-3.158-.826-1.42 0-2.73.415-3.923 1.24zm65.712-1.239c-1.496 0-2.96.3-4.39.905-1.429.602-3.024 1.672-4.785 3.213v-3.29H96.91v32.109h7.765v-12.882c0-3.341.114-5.512.34-6.514.436-1.926 1.216-3.435 2.342-4.525 1.125-1.092 2.473-1.637 4.043-1.637 1.21 0 2.228.33 3.05.99.824.656 1.4 1.614 1.732 2.872.33 1.257.496 3.804.496 7.635v14.062h7.68v-21.221c0-3.698-.898-6.492-2.697-8.38-2.14-2.223-4.744-3.337-7.812-3.337zm40.86 4.369c-1.383-1.456-2.89-2.549-4.518-3.277-1.629-.728-3.372-1.09-5.227-1.09-4.035 0-7.463 1.584-10.285 4.751-2.823 3.169-4.234 7.231-4.234 12.19 0 4.781 1.458 8.78 4.376 11.996 2.916 3.216 6.373 4.826 10.37 4.826 1.78 0 3.432-.332 4.957-.989 1.524-.66 3.044-1.736 4.56-3.232v3.394h7.765v-44.507h-7.765v15.938zm-2.07 19.375c-1.605 1.762-3.628 2.642-6.065 2.642-2.363 0-4.352-.896-5.968-2.687s-2.424-4.073-2.424-6.847c0-2.754.794-5.013 2.382-6.772 1.587-1.761 3.581-2.641 5.98-2.641 2.458 0 4.49.866 6.096 2.595 1.606 1.732 2.41 3.995 2.41 6.789 0 2.852-.804 5.16-2.41 6.921zM81.294 255.89c-1.383-1.456-2.888-2.549-4.517-3.277-1.629-.728-3.371-1.09-5.228-1.09-4.033 0-7.462 1.584-10.284 4.751-2.822 3.169-4.233 7.231-4.233 12.19 0 4.781 1.459 8.78 4.376 11.996 2.917 3.216 6.374 4.826 10.37 4.826 1.78 0 3.433-.332 4.957-.989 1.525-.66 3.045-1.736 4.56-3.232v3.394h7.766v-32.11h-7.766v3.541zm-2.068 19.375c-1.606 1.762-3.628 2.642-6.067 2.642-2.362 0-4.352-.896-5.967-2.687-1.616-1.79-2.423-4.073-2.423-6.847 0-2.754.793-5.013 2.38-6.772 1.589-1.761 3.582-2.641 5.982-2.641 2.457 0 4.489.866 6.095 2.595 1.606 1.732 2.41 3.995 2.41 6.789 0 2.852-.804 5.16-2.41 6.921z" fill="currentColor" fillOpacity="0.54"/></svg>
