<svg fill-rule="evenodd" role="img" viewBox="0 0 560 440" xmlns="http://www.w3.org/2000/svg"><title>Hanno</title><path d="M64.595 267.912v-38.544H24.744v38.544H0v-95.944h24.744v35.82h39.845v-35.82h24.74v95.944zm117.812 0l-4.744-13.812H139.83l-4.75 13.812h-28.05l36.107-95.944h31.068l36.252 95.944zm-23.739-71.496l-12.225 36.114h24.456zm134.697 71.496L252.89 212.38v55.532h-24.744v-95.944h25.46l38.842 52.787v-52.787h24.74v95.944zm117.095 0l-40.485-55.532v55.532h-24.737v-95.944h25.465l38.842 52.787v-52.787h24.75v95.944zm98.343 1.734c-7.386 0-14.195-1.224-20.428-3.672s-11.65-5.846-16.254-10.215c-4.609-4.365-8.197-9.581-10.798-15.68-2.578-6.085-3.881-12.778-3.881-20.07 0-7.283 1.303-13.977 3.881-20.066 2.601-6.086 6.19-11.31 10.798-15.675 4.598-4.365 10.014-7.771 16.254-10.22 6.233-2.44 13.042-3.668 20.427-3.668 7.283 0 14.07 1.229 20.35 3.668 6.29 2.449 11.7 5.855 16.263 10.22 4.553 4.364 8.118 9.59 10.708 15.675s3.888 12.783 3.888 20.066c0 7.292-1.298 13.98-3.888 20.07-2.59 6.095-6.16 11.315-10.708 15.68-4.563 4.364-9.973 7.762-16.264 10.215-6.279 2.448-13.065 3.672-20.349 3.672zm0-21.862c3.926 0 7.503-.723 10.718-2.16 3.204-1.446 5.946-3.407 8.192-5.9 2.25-2.488 4.005-5.42 5.252-8.782 1.246-3.353 1.872-6.995 1.872-10.933 0-3.926-.626-7.576-1.872-10.938-1.247-3.349-2.996-6.272-5.252-8.765-2.246-2.501-4.988-4.462-8.192-5.899-3.215-1.446-6.792-2.164-10.719-2.164-4.033 0-7.65.718-10.86 2.16-3.215 1.441-5.957 3.402-8.203 5.899-2.25 2.493-4.005 5.42-5.246 8.769-1.258 3.362-1.873 7.008-1.873 10.938 0 3.938.615 7.584 1.873 10.933 1.24 3.362 2.99 6.285 5.246 8.782 2.246 2.493 4.988 4.454 8.203 5.9 3.204 1.437 6.827 2.16 10.86 2.16z" fill="currentColor"/></svg>
