<svg fill-rule="evenodd" role="img" viewBox="0 0 560 440" xmlns="http://www.w3.org/2000/svg" aria-label="The National Lottery"><path d="M108.104 280.148c.728-1.15 1.695-1.15 2.361 0l10.653 19.49c.726 1.151 2.12 2.663 3.39 3.39l19.61 10.652c1.273.726 1.273 1.697 0 2.363l-19.61 10.59c-1.27.727-2.664 2.119-3.39 3.392l-10.653 19.49c-.726 1.15-1.694 1.15-2.36 0l-10.653-19.553c-.727-1.15-2.119-2.661-3.39-3.387l-19.611-10.653c-1.15-.726-1.15-1.697 0-2.363l19.611-10.652c1.15-.725 2.663-2.118 3.39-3.389z" fill="currentColor" fillOpacity="0.65"/><path d="M73.059 132.822c1.392-2.542 3.632-2.542 4.903 0l22.274 40.616c1.393 2.541 4.48 5.628 7.021 7.02l40.736 22.153c2.542 1.394 2.542 3.51 0 4.902l-40.736 22.276c-2.541 1.392-5.628 4.479-7.021 7.02l-22.274 40.495c-1.392 2.542-3.511 2.542-4.903 0l-22.274-40.613c-1.392-2.541-4.48-5.628-7.022-7.02L2.906 207.45c-2.541-1.39-2.541-3.51 0-4.901l40.736-22.275c2.542-1.393 5.629-4.478 7.022-7.021z" fill="currentColor" fillOpacity="0.54"/><path d="M152.775 90.513c.726-1.151 1.695-1.151 2.36 0l10.654 19.49c.726 1.15 2.118 2.663 3.389 3.39l19.611 10.652c1.15.726 1.15 1.695 0 2.361l-19.611 10.654c-1.271.725-2.663 2.118-3.39 3.389l-10.652 19.49c-.726 1.15-1.695 1.15-2.361 0l-10.653-19.49c-.726-1.15-2.118-2.664-3.39-3.39l-19.61-10.653c-1.272-.725-1.272-1.696 0-2.36l19.61-10.652c1.15-.728 2.664-2.12 3.39-3.39z" fill="currentColor" fillOpacity="0.325"/><path d="M216.33 167.505c.726-1.15 1.695-1.15 2.36 0l10.653 19.49c.727 1.15 2.119 2.664 3.39 3.39l19.611 10.653c1.15.725 1.15 1.694 0 2.362l-19.611 10.65c-1.271.726-2.663 2.12-3.39 3.393l-10.652 19.488c-.728 1.15-1.695 1.15-2.361 0l-10.593-19.55c-.726-1.15-2.118-2.664-3.39-3.39l-19.61-10.653c-1.15-.726-1.15-1.695 0-2.361l19.61-10.652c1.15-.725 2.664-2.12 3.39-3.39z" fill="currentColor" fillOpacity="0.22"/><path d="M147.872 340.798c-29.114 0-49.573-17.916-57.441-50.3-3.935-16.404-8.535-26.45-20.459-29.538-6.597-1.815-10.35-5.992-10.35-11.742 0-4.056 2.36-7.868 6.598-10.773 4.478-3.089 10.229-4.6 16.523-4.6 15.011 0 25.18 8.958 28.872 12.772l.424.422.121-.545c4.6-14.587 8.534-24.21 13.86-36.013v-.363c-7.988-17.372-9.683-28.996-9.683-35.713 0-8.837 4.357-18.461 13.981-18.461 6.296 0 12.167 5.992 17.675 18.34l.302.423.303-.422c4.479-5.752 9.806-9.08 14.285-9.08 7.445 0 12.045 5.448 12.045 14.285 0 8.11-4.176 17.372-8.413 26.207a96.505 162.877 0 0 0-3.754 8.537v.12l5.025 12.046.302-.122a15.455 15.455 0 0 1 6.175-1.27c1.694 0 3.207.303 4.782.846 5.87 2.24 8.958 8.535 8.11 16.949l-.121.847.545-.545c1.816-1.816 5.447-2.785 7.142-2.785 3.753 0 6.84 1.393 9.08 4.177 3.39 4.056 4.357 10.895 2.784 18.643-.424 1.936-1.15 4.782-2.24 7.263v.243c.726 4.177 1.271 7.868 1.271 12.467.121 31.718-25.845 57.685-57.744 57.685z" fill="#fff"/><g fill="currentColor"><path d="M194.66 239.655c-1.694 0-5.447.969-7.445 2.966.726-8.657-2.542-15.011-8.413-17.25-3.632-1.272-7.688-.968-11.076.544l-4.782-11.622c4.478-10.894 12.166-24.09 12.166-34.864 0-8.413-4.177-14.587-12.349-14.587-4.902 0-10.35 4.056-14.587 9.26-5.628-12.59-11.62-18.46-18.037-18.46-10.108 0-14.285 10.11-14.285 18.763 0 7.142 1.938 19.066 9.684 35.713-5.204 11.62-9.079 21.124-13.86 36.013-6.174-6.415-16.222-12.893-29.114-12.893-6.718 0-12.348 1.697-16.827 4.782-4.176 2.967-6.718 6.84-6.718 11.078 0 6.174 4.176 10.35 10.652 12.046 11.077 2.965 15.98 11.924 20.156 29.416 7.688 31.534 27.298 50.541 57.684 50.541 32.08 0 58.288-26.21 58.288-58.29 0-4.599-.545-8.412-1.27-12.59.968-2.54 1.694-5.206 2.24-7.444 3.026-13.437-2.18-23.122-12.106-23.122m-18.34-7.443c5.205 2.358 5.628 13.13.423 25.904-4.176 12.348-10.229 19.915-15.798 19.915-4.479 0-8.11-3.088-8.11-11.502-.061-15.676 12.83-39.223 23.484-34.319m-53.265-57.805c0-5.205 2.24-11.318 7.142-11.318 3.511 0 7.688 5.446 12.59 16.22-4.176 5.449-8.655 12.591-13.012 21.428-4.48-11.621-6.72-20.156-6.72-26.329m24.817 159.37c-25.906 0-43.701-18.037-50.542-44.972-4.6-18.462-10.652-30.81-25.602-34.744-1.695-.543-4.903-1.694-4.903-4.901 0-3.51 5.75-8.414 15.979-8.414 12.348 0 22.396 7.565 29.416 17.492l5.327-1.935c.848-10.11 5.872-23.97 15.011-43.28 11.32-24.393 22.82-41.038 30.507-40.918 2.36 0 5.326 2.967 5.326 7.143 0 10.11-8.958 25.181-16.645 41.704-.847 1.697-4.358 9.504-4.358 9.504l5.023 2.238c1.695-2.783 5.206-9.502 5.63-10.651l3.753 8.413c-8.112 6.839-15.254 23.24-15.254 36.015 0 9.38 4.176 15.253 10.351 17.25 5.629 1.694 11.076.12 15.253-4.904.969 5.874 4.902 11.079 12.59 11.079 6.718 0 11.198-3.936 14.587-10.532 1.09 31.171-24.696 54.413-51.449 54.413m52.538-71.847c-1.695 10.35-7.99 21.851-15.797 21.851-7.445 0-7.022-9.806-5.206-15.678 2.664-10.651 9.927-21.728 15.435-21.728 4.721 0 6.961 6.717 5.568 15.556m-26.208 51.933c-21.972 12.469-42.43 4.479-50.118-18.22l6.417-2.965c6.294 18.46 24.392 23.667 41.158 14.83zm-6.054-47.453c0 3.206-2.541 5.748-5.75 5.748s-5.75-2.542-5.75-5.748a5.711 5.711 0 0 1 5.75-5.752c3.269 0 5.75 2.543 5.75 5.752m24.092 6.838c0 2.785-2.24 5.207-5.206 5.207-2.785 0-5.206-2.241-5.206-5.207 0-2.784 2.24-5.205 5.206-5.205 2.966.06 5.206 2.42 5.206 5.205m87.281-103.746h-13.014v-9.924h37.407v9.925h-12.893v32.625h-11.5zm26.996-9.806h11.319v15.558h15.676v-15.558h11.32v42.552h-11.32V185.6h-15.676v16.647h-11.32zm43.459 0h30.689v9.806h-19.31v6.417h15.799v9.26h-15.799v7.263h20.701v9.806h-31.958v-42.549zM266.75 211.63h10.23l16.402 23.667V211.63h11.198v42.552h-9.684l-16.95-24.393v24.393H266.75zm54.778 0h12.893l15.132 42.552h-12.167l-2.784-8.837h-14.285l-2.785 8.837h-11.62zm10.774 25.483l-4.782-15.677-4.903 15.677zm22.395-15.677h-13.013v-9.928h37.406v9.928h-12.893v32.624h-11.5zM381.753 211.63h11.319v42.552h-11.319zM419.281 255.211c-3.207 0-6.173-.545-8.837-1.694-2.663-1.151-5.024-2.664-7.02-4.601-1.939-1.938-3.512-4.358-4.601-7.143-1.15-2.784-1.695-5.75-1.695-8.957 0-3.21.545-6.175 1.695-8.958 1.15-2.785 2.662-5.025 4.6-7.143 1.937-1.937 4.358-3.51 7.02-4.6 2.665-1.15 5.63-1.695 8.838-1.695s6.174.545 8.838 1.694c2.662 1.151 5.023 2.664 7.02 4.601 1.938 1.936 3.51 4.358 4.6 7.143 1.15 2.785 1.696 5.748 1.696 8.958 0 3.207-.545 6.174-1.695 8.957-1.15 2.785-2.663 5.025-4.6 7.143-1.938 1.937-4.359 3.51-7.021 4.6-2.664 1.15-5.63 1.695-8.838 1.695zm0-10.653c1.695 0 3.087-.304 4.479-.969a7.711 7.711 0 0 0 3.209-2.541 11.531 19.462 0 0 0 2.117-3.754c.424-1.39.726-2.965.726-4.6 0-1.633-.302-3.088-.726-4.6a10.051 10.051 0 0 0-2.117-3.754c-.849-1.149-1.937-1.935-3.21-2.541-1.27-.545-2.783-.967-4.478-.967s-3.087.302-4.48.967a7.725 7.725 0 0 0-3.207 2.541 11.514 19.433 0 0 0-2.118 3.754c-.424 1.392-.727 2.967-.727 4.6 0 1.635.303 3.088.727 4.6a10.054 10.054 0 0 0 2.118 3.754c.848 1.149 1.936 1.935 3.207 2.541 1.393.667 2.785.97 4.48.97zm26.33-32.928h10.23l16.402 23.667V211.63h11.198v42.552h-9.684l-16.949-24.393v24.393h-11.197zm54.778 0h12.893l15.132 42.552h-12.166l-2.785-8.837h-14.285l-2.784 8.837h-11.621zm10.774 25.483l-4.782-15.677-4.902 15.677zm18.764-25.483h11.319v32.624h19.732v9.928h-30.93V211.63zm-262.875 51.812h11.319v32.625h19.732v9.927h-30.93v-42.552zm52.781 43.582c-3.208 0-6.174-.545-8.837-1.696-2.663-1.15-5.024-2.662-7.021-4.6-1.937-1.937-3.511-4.359-4.6-7.142-1.15-2.785-1.696-5.75-1.696-8.959s.545-6.172 1.695-8.957 2.664-5.024 4.6-7.142c1.937-1.938 4.359-3.51 7.022-4.601 2.663-1.151 5.63-1.695 8.837-1.695 3.209 0 6.175.544 8.837 1.695s5.024 2.663 7.022 4.6c1.937 1.937 3.51 4.358 4.6 7.143 1.15 2.785 1.694 5.75 1.694 8.957s-.545 6.174-1.695 8.959-2.662 5.024-4.6 7.142c-1.937 1.938-4.358 3.511-7.02 4.6-2.663 1.15-5.63 1.696-8.838 1.696zm0-10.532c1.695 0 3.087-.304 4.48-.969 1.27-.545 2.36-1.392 3.207-2.541s1.514-2.363 2.12-3.754c.422-1.392.725-2.965.725-4.6s-.303-3.088-.726-4.6a10.056 10.056 0 0 0-2.119-3.754c-.847-1.149-1.937-1.935-3.208-2.541-1.27-.545-2.784-.969-4.48-.969s-3.086.304-4.478.969a7.737 7.737 0 0 0-3.209 2.541 11.531 19.462 0 0 0-2.117 3.754c-.424 1.392-.727 2.965-.727 4.6s.303 3.088.727 4.6a10.079 10.079 0 0 0 2.117 3.754c.849 1.149 1.938 1.935 3.21 2.541 1.27.726 2.783.97 4.478.97zm34.864-23.063h-13.013v-9.924h37.406v9.924h-12.893v32.626h-11.5zm39.646 0H381.33v-9.924h37.406v9.924h-12.892v32.626h-11.501zm27.056-9.987h30.689v9.806h-19.31v6.6h15.8v9.259h-15.8v7.262h20.702v9.806h-31.96v-42.733zm35.531 0h17.674c2.24 0 4.358.304 6.173.848s3.511 1.514 4.782 2.663 2.36 2.663 3.088 4.36a6.02 10.16 0 0 1 1.15 5.991c0 2.785-.545 5.205-1.817 7.264-1.27 2.117-2.783 3.63-4.902 4.901l9.079 16.404H479.99l-7.143-14.405h-4.781v14.405H456.99v-42.43zm16.524 19.19c1.514 0 2.664-.425 3.631-1.394.97-.969 1.393-2.118 1.393-3.632 0-1.694-.424-2.965-1.393-3.752-.847-.969-2.117-1.392-3.752-1.392h-5.448v10.228h5.569zm29.416 6.475l-15.131-25.604h12.892l8.292 15.133 7.869-15.133h12.59l-15.132 25.482v17.07h-11.32z"/></g></svg>
