<svg fill-rule="evenodd" role="img" viewBox="0 0 560 440" xmlns="http://www.w3.org/2000/svg" aria-label="NHS"><path d="M0 106.65h559.999v226.653H0zm527.308 63.179a91.73 91.73 0 0 0-40.004-8.386c-19.323 0-35.018 2.89-35.018 17.509 0 25.895 70.829 16.206 70.829 71.623 0 50.43-46.804 63.52-89.131 63.52a204.013 204.013 0 0 1-56.664-9.407l11.333-37.114c9.689 6.29 29.012 10.482 44.934 10.482s38.928-2.89 38.928-21.702c0-29.295-70.83-18.302-70.83-69.809 0-47.031 41.308-61.196 81.312-61.196 22.666 0 43.631 2.379 55.927 8.102zm-411.659-41.307H54.736L15.809 310.978h46.01l25.329-126.246h.51l38.191 126.246h60.629l38.701-182.456h-46.01L153.557 255.05h-.567zm245.182 182.456l37.908-182.456h-48.9l-14.393 69.809H277.65l14.392-69.81h-48.9l-37.851 182.457h48.843l16.206-78.139h57.513l-16.205 78.14z" fill="currentColor"/></svg>
