<svg fill-rule="evenodd" role="img" viewBox="0 0 560 440" xmlns="http://www.w3.org/2000/svg"><title>Ogilvy</title><g fill="currentColor"><path d="M328.109 114.902c8.121.063 16.252-.048 24.364.09.07 41.819.01 83.646.04 125.463.01 5.17-.12 10.282.15 15.452 3.92 1.71 8.672 1.549 12.882 2.22 0 2.29-.05 4.591-.17 6.881-34.146-.13-68.352.162-102.488-.148.01-2.221.02-4.453.04-6.671 3.34-.561 6.721-.911 10.052-1.55 1.53-1.46 1.58-3.152 1.58-5.132-.03-19.704-.03-39.426 0-59.14-.13-2.171.23-4.25-2.05-5.411-3.551-1.58-7.412-2.412-11.032-3.881-.02-1.44-.04-2.889-.04-4.331 5.56-1.989 11.482-3.031 17.183-4.57 6.72-1.611 13.412-3.79 20.253-4.78.09 27.044.01 54.097.03 81.142.23 2.763.06 5.871 3.5 6.4 7.122.432 14.383.342 21.505.072 1.69.02 2.73-.81 3.58-2.19.53-3.051.22-6.27.28-9.363-.02-35.333 0-70.672-.01-106.018-.01-4.42.2-8.741-.35-13.152-4.19-1.82-8.661-2.641-12.772-4.64.07-1.382.13-2.751.19-4.122 4.44-1.34 8.572-2.7 13.283-2.62z" fill-rule="nonzero"/><path d="M110.96 120.564c12.472 4.9 24.034 13.152 32.095 23.926 7.972 10.38 13.033 23.003 14.563 35.983.35 9.283.85 19.295-1.45 28.347-3.241 14.464-10.952 27.833-21.904 37.806-12.903 11.862-29.766 18.774-47.149 20.344-7.901.24-16.143.57-23.934-.942-8.732-1.539-17.213-4.29-24.955-8.65-16.553-8.802-29.205-24.254-34.756-42.136-3.52-10.674-4-21.774-3.03-32.898 1.87-16.162 8.611-31.796 20.073-43.466 12.722-13.403 30.756-21.816 49.129-23.375 14.023-1.44 28.145-.09 41.317 5.061zm-35.827 3.611c11.382-.86 22.894 3.13 31.076 11.122 9.551 8.65 15.242 21.533 18.063 33.906 3.75 17.144 3.15 35.526-2.28 52.247-4.131 12.254-11.503 24.345-22.875 31.076-12.282 7.532-28.465 7.283-40.577-.479-9.112-5.63-15.923-15.071-20.154-24.773-6.36-15.275-8.121-32.578-6.1-48.92 1.85-15.062 6.92-30.006 17.482-41.228 6.672-7.13 15.663-11.77 25.365-12.95z"/><path d="M360.594 172.933c16.013-.3 32.136-.09 48.17-.1-.021 2.101-.041 4.2-.051 6.292-3.48 1.02-7.831 1.08-10.862 3.11-1.09 3.57.91 7.1 2.09 10.391 6.232 15.492 11.813 31.307 18.334 46.659 2.5-3.341 3.45-7.013 4.94-10.833 5.062-13.25 10.202-26.473 15.293-39.707.76-2.61 2.3-5.2-.33-7.3-3.34-1.12-6.89-1.541-10.272-2.532-.01-2.01-.02-4.019-.04-6.02 25.365-.21 50.74-.06 76.104-.08.01 2.09.01 4.18.03 6.272-2.83.678-5.7 1.139-8.521 1.87-1.33.271-2.13.91-2.85 2.04-.541 2.491.74 5.141 1.59 7.442 4.58 11.45 9.031 22.954 13.542 34.446 1.66 4.15 2.88 8.241 5.28 12.061 7.142-15.873 13.483-32.156 20.344-48.178.76-2.26 2.61-6.03-.43-7.362-3.08-1.059-6.39-1.459-9.551-2.29.01-2.09.01-4.19 0-6.292 12.192-.04 24.404-.059 36.596.01-.03 2.131-.05 4.262-.07 6.391-3.32.86-7.791 1.202-10.402 3.571-3.41 2.782-4.68 7.572-6.48 11.492-14.783 34.237-29.346 68.575-44.259 102.757-4 9.144-9.912 19.116-18.623 24.445-4.6 2.922-9.802 3.182-15.073 2.491-4-.8-7.921-4.19-7.691-8.582-.3-3.649.86-6.65 3.95-8.7 4.361-3.052 9.862-1.35 14.803-1.59 3.36.06 6.291-1.721 8.302-4.321 4.36-5.482 6.92-12.953 9.721-19.354 1.77-4.48 4.011-8.781 5.611-13.313.56-1.46-.3-3.119-.79-4.5-9.581-22.823-18.993-45.717-28.465-68.581-1.86-4.32-3.33-9.093-5.91-13.033-1.791-2.58-5.202-2.411-7.942-1.961-3.14.879-4.121 3.891-5.361 6.552-8.652 21.294-17.493 42.517-26.205 63.791-2.13 4.882-3.83 9.872-6.201 14.632-4.841-.03-9.682-.021-14.533-.021-2.5-4.95-4.28-10.152-6.47-15.28-8.532-20.845-17.104-41.64-25.636-62.471-.93-2.102-2-4.522-4.1-5.694-2.28-1.15-5.021-1.56-7.492-2.108-.1-2.16-.2-4.362-.09-6.512z" fill-rule="nonzero"/><path d="M280.99 129.697c7.321 1.36 15.013 4.85 17.643 12.382 2.54 6.51-.03 14.271-6.34 17.472-6.292 3.211-14.424.858-17.974-5.26-2.34-3.722-1.43-8.043-1.74-12.344-3.681-1.88-7.522-1.46-11.503-1.02-8.501 1.56-15.592 7.672-18.763 15.654-2.81 7.14-3.33 15.441-1.08 22.795 1.48 4.109 5.13 7.06 6.851 11.15 6.081 13.322 2.34 30.476-9.162 39.726-9.881 8.122-22.274 10.713-34.806 10.502-8.371.01-18.433.571-25.784 4.961-5.281 2.7-5.721 12.003.01 14.433 3.43 1.601 8.061.971 11.752.74 9.941-1.31 19.893-2.511 29.845-3.771 4.75-.509 9.292-1.409 14.113-.97 6.44.61 13.352 2.69 18.163 7.201 4.13 3.69 6.641 8.782 7.391 14.243.64 6.17.16 12.383-2.1 18.194-4.31 11.882-14.183 20.713-25.825 25.184-10.742 3.931-22.284 5.27-33.576 3.19-7.271-1.151-14.122-3.13-20.093-7.6-6.052-4.402-10.172-11.402-9.562-19.045-.07-3.61 1.83-7.1 5.12-8.68 4.081-2.041 9.652-.84 11.843 3.37 2.02 3.92.23 9.313 1.56 13.512 1.4 3.75 4.591 6.18 8.232 7.581 5.37 2.11 11.252 2.02 16.933 1.901 8.101-.188 16.533-2.75 22.894-7.881 4.02-3.402 7.471-8.373 7.841-13.774.18-4.13.69-8.18-2.62-11.282-4.331-4.438-11.502-3.59-17.153-3.36-10.692 1.202-21.374 2.62-32.056 3.92-8.732.713-17.703.18-24.835-5.46-10.171-7.9-10.051-25.123-1.07-33.856 5.421-5.3 12.022-7.05 19.164-8.771-2.69-2.052-5.581-4.1-7.962-6.52-4.47-4.652-7.661-10.513-8.671-16.904-.63-7.102-.4-13.961 2.93-20.413 4.941-9.913 14.173-16.273 24.605-19.383 6.59-2.152 13.082-1.94 19.923-1.712 4.961.2 9.522 1.81 14.233 3.21-.04-2.578-.12-5.14-.03-7.72.02-9.892 5.19-19.634 12.632-26.006 10.382-8.95 25.765-11.942 39.027-9.59zm-78.344 49.248c4.57-2.361 11.322-1.821 15.153 1.81 5.26 4.42 7.701 11.402 8.671 18.013.62 7.232.63 14.221-2.03 21.083-2.05 5.442-5.791 10.761-11.642 12.434-3.78 1.398-8.112-.082-11.282-2.26-5.801-4.213-8.692-11.765-9.702-18.625-.59-5.431-.64-11.142.62-16.494 1.45-6.081 4.51-12.79 10.212-15.961z"/></g></svg>
