<svg fill-rule="evenodd" role="img" viewBox="0 0 560 440" xmlns="http://www.w3.org/2000/svg"><title>Social 360</title><g fill="currentColor"><path d="M477.935 152.162c-.46 1.79-.94 3.58-1.4 5.369-6.499-1.48-13.127-1.28-19.236 1.51-5.58 2.65-9.429 7.608-11.798 13.197-3.34 7.959-4.23 16.997-4.25 25.556 0 6.079.18 12.738 2.29 18.497 1.25 3.469 3.38 6.528 6.549 8.488 3.82 2.37 8.618 2.89 13.008 2.5 5.759-.56 10.418-4.64 12.647-9.849 2.04-4.469 2.14-9.158 1.63-13.967-.81-4.95-3.27-9.748-7.889-12.118-5.539-3.02-11.038-2.05-17.017-1.56-.14-1.9-.27-3.79-.39-5.689 6.34-.99 12.678-1.45 18.787.92 4.34 1.65 7.879 4.79 9.968 8.939 2.89 5.629 3.2 11.697 2.54 17.886-.84 6.19-3.09 12.138-8.009 16.238-5.479 4.629-13.357 5.639-20.256 4.759-5.419-.65-10.518-2.76-13.888-7.199-4.019-5.26-5.409-12.378-6.088-18.827-.87-10.588-.44-21.896 2.82-32.084 2.529-7.669 6.808-14.857 13.747-19.287 7.488-5.029 17.736-5.379 26.235-3.28zM410.507 171.339c7.959 4.339 10.128 14.987 6.959 22.975-2.53 6.32-7.689 10.669-13.858 13.258 8.189 2.19 16.667 8.629 18.547 17.257 1.35 6.649-.29 14.857-5.43 19.617-3.918 3.799-9.477 5.529-14.827 5.929-8.268.42-16.397-.06-24.185-3.09l2.04-5.459c7.718 2.76 16.177 3.83 24.285 2.53 4.2-.67 8.129-2.43 10.348-6.23 3-5.608 2.51-13.137-1.52-18.146-4.599-5.789-11.707-8.469-18.916-9.058v-5.24c7.039-.83 13.388-4.959 16.897-11.128 2.32-3.929 2.52-9.128.72-13.277-1.73-3.84-5.36-5.95-9.369-6.719-6.128-1.07-11.927.09-17.716 2.13-.75-1.64-1.5-3.29-2.24-4.94 8.628-3.549 19.796-5.129 28.265-.41zM518.488 169.389c10.638-2.37 22.996-.77 31.464 6.539 7.189 6.229 10.188 15.547 10.028 24.865.17 8.459-2.03 16.737-7.868 23.056-6.05 6.43-14.438 8.899-23.056 9.249-8.059.12-16.317-1.47-22.806-6.51-6.349-4.868-9.778-12.427-10.638-20.256-.87-8.668.01-17.627 4.889-25.065 4.1-6.3 10.708-10.338 17.987-11.878zm4.989 4.949c5.159-.55 10.278-.23 15.067 1.93 6.849 2.95 11.958 9.098 13.858 16.297 2.88 10.698.28 23.776-9.349 30.264-8.578 5.78-20.756 6.05-29.514.51-6.21-3.909-9.969-10.568-10.898-17.767-.87-7.038-.02-15.177 3.949-21.226 3.75-5.819 10.108-9.188 16.887-10.008zM20.586 207.402c10.449-2.26 21.886-.57 31.555 3.89-1.4 3.779-2.9 7.508-4.49 11.208-7.098-2.42-15.297-4.23-22.775-2.87-3.74.78-7 3.02-7.27 7.139-.249 4.029 2.91 6.639 6.03 8.518 8.908 5.18 19.926 7.959 27.245 15.757 7.779 8 7.389 22.157-.71 29.785-5.859 5.54-14.177 7.529-22.006 8.039-9.718.46-19.387-.73-28.165-5.13 1.47-3.929 3.01-7.838 4.65-11.697 7.168 2.83 14.767 4.259 22.485 3.83 3.81-.34 8.359-1.08 11.198-3.88 2.85-2.68 3.29-7.309 1.1-10.518-2.05-3.13-6.039-5.11-9.328-6.67-7.419-3.439-15.947-6.208-21.826-12.157-5.94-5.909-7.38-15.437-4.3-23.076 3.05-6.869 9.549-10.538 16.607-12.168zM194.085 206.732c10.329-.92 21.137.12 30.755 4.19-1.34 3.939-2.71 7.868-4.17 11.767-9.198-2.839-20.136-4.499-29.544-1.9-8.139 2.26-14.157 8.6-16.207 16.758-2.11 8.668-1.52 19.236 3.54 26.855 4.309 6.559 11.547 10.058 19.176 11.008 8.128.75 16.207.08 24.046-2.24 1.25 3.98 2.4 8 3.449 12.038-4.24 1.43-8.519 2.63-12.998 3.09-10.318 1.24-21.886 1.02-31.674-2.86-8.169-3.169-15.037-9.318-18.677-17.337-4.099-8.938-4.719-19.676-3.29-29.294 1.28-8.739 4.87-17.107 11.679-22.936 6.799-5.82 15.137-8.289 23.915-9.139zM236.928 207.622c5.169-.02 10.338-.02 15.507 0 .04 26.675.02 53.35.01 80.026-5.179.01-10.348.02-15.527-.03 0-26.665-.02-53.33.01-79.996zM293.308 207.812l.68-.01c6.479-.46 12.997-.04 19.496-.23 9.469 26.605 18.477 53.4 27.835 80.046-5.429.05-10.848.05-16.277 0-2.94-8.658-5.849-17.327-8.848-25.965-6.919.01-13.828.01-20.747.01 1.36-3.85 2.71-7.709 4.1-11.548 4.319.04 8.638.04 12.957 0-3.279-10.658-6.288-21.407-9.568-32.065-3.9 11.028-7.349 22.216-11.228 33.244-4.53 12.128-9.168 24.216-13.747 36.334-5.23.04-10.459.02-15.698.04 10.319-26.625 20.847-53.18 31.045-79.856z"/><path d="M351.118 207.602c5.119.01 10.238 0 15.347.02.05 22.506-.01 45.012.03 67.508 11.568.02 23.136-.03 34.704.03-.97 4.17-1.94 8.349-2.97 12.508-15.767-.07-31.534.06-47.291-.07-.02-22.606-.01-45.202-.01-67.808-.04-4.07-.05-8.129.19-12.188zM99.352 206.982c10.019-1.46 21.347-.63 30.455 4.12 7.579 3.959 13.278 10.878 16.097 18.916 2.81 7.819 3.32 16.577 2.4 24.786-1.11 8.978-4.71 17.527-11.408 23.746-6.74 6.269-15.728 9.398-24.776 10.198-9.078.79-18.667.04-26.965-3.97-7.429-3.559-13.268-9.918-16.387-17.506-3.41-8.099-3.9-16.557-3.3-25.226.86-9.498 4.75-18.567 11.838-25.066 6.15-5.629 13.878-8.738 22.046-9.998zm1.24 12.458c5.9-.97 12.638-.85 18.157 1.7 5.119 2.29 9.098 6.589 11.328 11.708 2.85 6.469 3.22 14.037 2.39 20.976-.95 7.189-3.93 14.008-10.019 18.267-6.519 4.579-15.687 5.309-23.276 3.63-8.518-2.01-14.557-8.94-16.797-17.208-2.35-8.788-2.11-19.156 2.09-27.385 3.19-6.289 9.248-10.428 16.127-11.688z"/></g></svg>
