<svg fill-rule="evenodd" role="img" viewBox="0 0 560 440" xmlns="http://www.w3.org/2000/svg" aria-label="Stordis"><g fill="currentColor"><path d="M276.894 298.352a11.008 11.008 0 0 1-7.525-2.963L150.6 185.228a11.068 11.068 0 0 1-3.537-8.106c0-3.076 1.284-6.016 3.537-8.107l118.77-110.16c4.221-3.921 10.832-3.921 15.053 0l118.77 110.16a11.066 11.066 0 0 1 3.537 8.107c0 3.075-1.284 6.014-3.537 8.106l-118.77 110.161a11.013 11.013 0 0 1-7.528 2.963zm0-174.545h-27.602c-14.628 0-26.665 12.036-26.665 26.663 0 14.628 12.037 26.663 26.665 26.663h53.584c14.72 0 26.832 12.115 26.832 26.832 0 14.718-12.112 26.83-26.832 26.831h-25.982v56.472l118.771-110.16-118.77-110.136zm25.957 71.086h-62.529c-17.76 0-17.76 17.786-17.76 17.786h80.367c4.836 0 8.813-3.98 8.813-8.816v-.078c-.082-4.847-4.043-8.81-8.89-8.892zm8.891-35.543h-62.45c-4.847-.082-8.812-4.046-8.894-8.894v-.05c0-4.836 3.98-8.816 8.815-8.816h80.391s-.155 17.76-17.862 17.76zM454.32 315.686h12.092v71.272H454.32zM441.041 350.71a37.08 37.08 0 0 1-10.162 25.982 35.044 35.044 0 0 1-25.982 10.162h-39.97v-71.135h39.869a34.642 34.642 0 0 1 25.981 9.653 32.746 32.746 0 0 1 10.264 25.338zm-12.703.61a22.37 22.37 0 0 0-6.775-16.937 22.78 22.78 0 0 0-16.938-6.775H376.85v46.611h27.775a22.461 22.461 0 0 0 16.938-6.03 20.704 20.704 0 0 0 6.808-16.868zM283.357 386.956h-12.059V315.82h46.51a37.54 37.54 0 0 1 22.356 6.03c6.775 4.234 9.653 10.872 9.653 19.952a22.087 22.087 0 0 1-5.454 15.107 25.241 25.241 0 0 1-14.496 8.469l21.745 21.747h-18.73l-19.92-19.952h-29.605zm0-32.62h36.246a17.278 17.278 0 0 0 11.483-3.015 10.919 10.919 0 0 0 5.42-9.655c0-9.078-5.42-13.888-16.938-13.888h-36.21zm-114.8-5.454a34.203 34.203 0 0 1 9.689-25.473 38.26 38.26 0 0 1 25.981-9.656h17.513a37.275 37.275 0 0 1 25.982 9.656 34.636 34.636 0 0 1 10.162 25.37v3.016a36.06 36.06 0 0 1-10.162 25.981 33.894 33.894 0 0 1-25.982 10.163h-17.513a34.602 34.602 0 0 1-25.981-10.163 35.616 35.616 0 0 1-9.654-25.981zm76.726 1.22a21.452 21.452 0 0 0-6.775-16.938 22.735 22.735 0 0 0-16.938-6.774h-17.343a24.838 24.838 0 0 0-16.937 6.774 23.715 23.715 0 0 0-6.774 16.937v3.015a22.295 22.295 0 0 0 6.774 16.327 24.84 24.84 0 0 0 16.937 6.775h17.513a22.74 22.74 0 0 0 16.938-6.775 20.334 20.334 0 0 0 6.773-16.327zM130.518 386.956h-12.093v-59.212H88.209v-12.06h73.134v12.06h-30.825zM79.13 364.6c0 16.123-13.549 22.356-24.76 22.356H0s.204-12.737 12.67-12.737h41.7c8.907 0 13.277-3.658 13.277-9.653 0-5.996-4.301-9.655-13.277-9.655H21.139C7.589 354.911 0 345.597 0 334.994s7.657-19.344 21.14-19.344h53.79v12.095H21.139c-8.097 0-9.08 5.52-9.08 7.214s.983 7.284 9.08 7.284h33.23c9.993 0 24.761 6.03 24.761 22.356zm456.08-22.357h-33.23c-8.096 0-9.079-5.454-9.079-7.284 0-1.829.983-7.214 9.08-7.214h42.105c.201.01.405.015.609.015 6.646 0 12.117-5.463 12.127-12.11h-54.741c-13.55 0-21.137 8.876-21.137 19.344 0 10.466 7.656 19.917 21.137 19.917h33.129c8.978 0 13.278 3.692 13.278 9.655 0 5.961-4.234 9.653-13.278 9.653H484.4v12.704h50.81c11.043 0 24.762-6.234 24.762-22.357 0-16.125-14.768-22.323-24.762-22.323z"/></g></svg>
