<svg fill-rule="evenodd" role="img" viewBox="0 0 560 440" xmlns="http://www.w3.org/2000/svg" aria-label="Thomson Reuters"><path d="M109.62 294.273H92.94v48.025c0 .921-.753 1.675-1.684 1.675h-8.26a1.677 1.677 0 0 1-1.675-1.675v-48.025H64.622c-.918 0-1.672-.582-1.672-1.5v-6.608c0-.931.754-1.59 1.672-1.59h44.999c.918 0 1.671.659 1.671 1.59v6.608c0 .918-.753 1.5-1.671 1.5zm60.33 49.7h-8.266c-.931 0-1.69-.754-1.69-1.675V318.08h-26.491v24.218c0 .921-.747 1.675-1.652 1.675h-8.286a1.674 1.674 0 0 1-1.672-1.675v-56.133c0-.931.747-1.59 1.672-1.59h8.286c.905 0 1.652.659 1.652 1.59v21.709h26.49v-21.71c0-.93.76-1.59 1.691-1.59h8.267c.908 0 1.668.66 1.668 1.59v56.134c0 .921-.76 1.675-1.668 1.675zm41.44.666c-13.798 0-26.571-7.698-26.571-26.087v-8.56c0-18.393 12.773-26.077 26.571-26.077s26.585 7.684 26.585 26.076v8.561c0 18.389-12.786 26.087-26.585 26.087zm14.862-34.648c0-11.03-6.663-15.964-14.862-15.964-8.192 0-14.861 4.934-14.861 15.964v8.561c0 11.04 6.67 15.961 14.861 15.961 8.2 0 14.862-4.92 14.862-15.96zm83.762 33.982h-8.447c-.747 0-1.33-.85-1.33-1.675v-36.15c0-.586-.083-.831-.264-.831-.065 0-.236.245-.414.49l-13.5 29.905c-.495.909-1.579 1.42-2.655 1.42h-4.352c-1.09 0-2.179-.511-2.667-1.42l-13.588-29.904c-.174-.246-.349-.491-.42-.491-.165 0-.252.245-.252.83v36.15c0 .825-.592 1.676-1.345 1.676h-8.438c-.753 0-1.432-.424-1.432-1.255V287.92a3.358 3.358 0 0 1 3.352-3.346h6.86c1.326 0 2.503.837 3.094 2.008l16.04 32.662c.41.75.59 1.17.937 1.17.323 0 .488-.42.911-1.17l16.036-32.662c.588-1.17 1.768-2.008 3.1-2.008h6.86a3.349 3.349 0 0 1 3.337 3.346v54.798c0 .831-.67 1.255-1.423 1.255zm183.68 0h-8.452c-2.007 0-3.776 0-5.092-3.004l-22.675-38c-.243-.497-.505-.675-.75-.675-.24 0-.424.178-.424.675v39.332c0 .918-.67 1.672-1.597 1.672h-7.09a1.66 1.66 0 0 1-1.665-1.672v-54.38c0-1.844 1.48-3.347 3.327-3.347h9.036c1.752 0 2.67.501 3.682 2.693l23.581 40.234c.165.407.414.666.673.666.165 0 .404-.259.404-.753v-41.25c0-.93.666-1.59 1.597-1.59h7.19c.925 0 1.597.66 1.597 1.59v54.466a3.351 3.351 0 0 1-3.343 3.343zm-146.385.704c-7.384 0-14.88-1.273-18.9-2.198-.834-.171-1.59-.744-1.59-1.662v-6.03c0-.91.756-1.583 1.59-1.583h.165c3.347.42 11.17 1.51 18.897 1.51 7.452 0 9.708-2.664 9.708-7.514 0-6.268-14.945-9.744-22.249-12.757-7.293-3.01-9.863-8.774-9.863-14.613 0-9.207 7.41-15.896 22.957-15.896 7.969 0 15.269 1.52 18.107 2.198.844.172 1.5.757 1.5 1.585v6.19c0 .828-.581 1.5-1.419 1.5h-.161c-5.525-.5-11.254-1.512-18.535-1.512-6.168 0-10.827 2.175-10.827 5.935 0 2.755 3.149 5.283 6.85 6.754 3.712 1.464 8.59 3.359 14.148 5.593 7.06 2.851 11.622 7 11.622 15.023 0 8.438-5.263 17.477-22 17.477zm59.114-.038c-13.798 0-26.565-7.698-26.565-26.087v-8.56c0-18.393 12.767-26.077 26.565-26.077 13.792 0 26.565 7.687 26.565 26.076v8.561c0 18.389-12.773 26.087-26.565 26.087zm14.862-34.648c0-11.03-6.67-15.964-14.862-15.964-8.195 0-14.871 4.934-14.871 15.964v8.561c0 11.04 6.676 15.961 14.871 15.961 8.193 0 14.862-4.92 14.862-15.96zM141.511 439.256H131.3c-.915 0-1.254-.85-1.668-1.668l-12.05-20.277h-1.849c-2.179 0-8.939-.242-10.859-.342v20.62c0 .91-.679 1.667-1.597 1.667h-8.364a1.678 1.678 0 0 1-1.665-1.668v-54.804c0-1.675.986-2.26 2.674-2.506 4.352-.662 13.698-1.076 19.811-1.076 12.874 0 24.771 4.594 24.771 18.893v.756c0 8.849-4.435 13.695-11.29 16.356l13.12 22.381c.178.25.178.482.178.673 0 .578-.336.995-1.002.995zm-12.547-41.161c0-6.278-4.866-8.949-13.23-8.949-1.762 0-9.369.162-10.859.333v18.127c1.325.087 9.427.259 10.86.259 8.602 0 13.229-1.665 13.229-9.014zm35.843 24.69c0 7.005.265 7.193 6.589 7.193h21.172a1.68 1.68 0 0 1 1.672 1.668v5.347c0 1.174-.417 1.597-1.672 1.756-2.68.423-8.12 1.173-18.065 1.173-13.883 0-21.244.094-21.244-17.137v-26.459c0-17.225 7.361-17.124 21.244-17.124 9.944 0 15.385.756 18.065 1.16 1.255.162 1.672.585 1.672 1.762v5.348c0 .911-.754 1.674-1.672 1.674h-21.172c-6.324 0-6.589.188-6.589 7.18v7.666h26.759c.918 0 1.675.77 1.675 1.674v6.03c0 .911-.757 1.668-1.675 1.668h-26.759zm66.977 17.137c-13.45 0-25.036-5.848-25.036-23.671v-34.802c0-.925.76-1.588 1.678-1.588h8.26c.931 0 1.675.663 1.675 1.588v34.802c0 9.537 4.41 14.053 13.423 14.053 9.042 0 13.442-4.516 13.442-14.053v-34.802c0-.925.74-1.588 1.668-1.588h8.274c.924 0 1.684.663 1.684 1.588v34.802c0 17.823-11.6 23.671-25.068 23.671zm80.047-50.365H295.15v48.031c0 .912-.773 1.668-1.69 1.668h-8.274a1.682 1.682 0 0 1-1.674-1.668v-48.031h-16.698c-.909 0-1.659-.576-1.659-1.5v-6.608c0-.925.75-1.588 1.659-1.588h45.018c.905 0 1.659.663 1.659 1.588v6.608c0 .924-.754 1.5-1.659 1.5zm113.554 49.7h-10.213c-.918 0-1.248-.85-1.659-1.666l-12.055-20.28h-1.863c-2.16 0-8.926-.242-10.869-.342v20.62c0 .91-.656 1.667-1.568 1.667h-8.357a1.682 1.682 0 0 1-1.674-1.668v-54.804c0-1.675.995-2.26 2.667-2.506 4.348-.662 13.714-1.076 19.801-1.076 12.884 0 24.778 4.594 24.778 18.893v.756c0 8.849-4.442 13.695-11.3 16.356l13.149 22.384c.165.246.165.479.165.67 0 .578-.343.995-1.002.995zm-12.544-41.162c0-6.275-4.872-8.949-13.246-8.949-1.752 0-9.352.162-10.869.333v18.127c1.365.087 9.466.259 10.87.259 8.625 0 13.245-1.665 13.245-9.014zm44.453 41.863c-7.39 0-14.878-1.264-18.897-2.195-.828-.165-1.59-.744-1.59-1.662v-6.023c0-.915.762-1.59 1.59-1.59h.165c3.35.42 11.173 1.506 18.906 1.506 7.436 0 9.712-2.66 9.712-7.513 0-6.266-14.972-9.741-22.285-12.748-7.27-3.01-9.844-8.774-9.844-14.622 0-9.204 7.407-15.89 22.954-15.89 7.972 0 15.269 1.516 18.104 2.202.844.165 1.504.75 1.504 1.574v6.198c0 .824-.57 1.5-1.42 1.5h-.084c-5.606-.498-11.325-1.513-18.59-1.513-6.203 0-10.836 2.172-10.836 5.929 0 2.758 3.146 5.28 6.857 6.76 3.708 1.458 8.577 3.359 14.138 5.596 7.048 2.842 11.616 6.993 11.616 15.014 0 8.444-5.267 17.477-22 17.477zm-123.657-17.173c0 7.005.259 7.193 6.602 7.193h21.172c.9 0 1.662.756 1.662 1.668v5.347c0 1.174-.42 1.597-1.662 1.756-2.686.423-8.13 1.173-18.069 1.173-13.908 0-21.25.094-21.25-17.137v-26.459c0-17.225 7.342-17.124 21.25-17.124 9.939 0 15.383.756 18.07 1.16 1.24.162 1.661.585 1.661 1.762v5.348c0 .911-.763 1.674-1.662 1.674H340.24c-6.343 0-6.602.188-6.602 7.18v7.666h26.76c.934 0 1.658.77 1.658 1.674v6.03c0 .911-.724 1.668-1.659 1.668h-26.759zm60.136-292.893c-7.436 0-13.462-6.052-13.462-13.517 0-7.407 6.026-13.455 13.462-13.455 7.439 0 13.475 6.048 13.475 13.455 0 7.465-6.036 13.517-13.475 13.517zm5.748-53.143c-2.056-6.14-8.654-9.443-14.713-7.42-6.1 2.04-9.427 8.6-7.407 14.714 2.053 6.065 8.626 9.388 14.69 7.393 6.13-2.027 9.428-8.66 7.43-14.687zM381.77 46.208c-3.087-4.455-9.256-5.622-13.756-2.483-4.474 3.08-5.6 9.278-2.528 13.727 3.11 4.545 9.262 5.712 13.792 2.55 4.497-3.142 5.605-9.223 2.492-13.794zm-24.683-23.284c-3.64-3.045-8.994-2.492-12.014 1.154-2.997 3.602-2.496 9.004 1.151 11.991 3.64 3.02 9.052 2.496 11.997-1.138 3.05-3.666 2.483-9.01-1.134-12.007zM329.89 8.858c-3.462-1.546-7.549-.055-9.185 3.365-1.561 3.427-.077 7.581 3.366 9.172a6.87 6.87 0 0 0 9.207-3.34 6.903 6.903 0 0 0-3.388-9.197zm-25.918-6.99c-3.21-.705-6.346 1.345-7.045 4.604-.66 3.226 1.4 6.366 4.594 7.025a5.912 5.912 0 0 0 7.07-4.623 5.905 5.905 0 0 0-4.62-7.006zM279.952 0c-2.826-.013-5.102 2.292-5.102 5.11 0 2.826 2.276 5.135 5.101 5.135 2.842 0 5.121-2.309 5.121-5.134 0-2.82-2.28-5.124-5.12-5.111zm-100.32 116.375c0-7.407-6.003-13.455-13.455-13.455-7.42 0-13.433 6.048-13.433 13.455 0 7.465 6.013 13.517 13.433 13.517 7.452 0 13.455-6.052 13.455-13.517zm2.975 32.342c-2.07-6.09-8.645-9.401-14.69-7.4-6.176 2.014-9.435 8.651-7.453 14.713 2.008 6.126 8.603 9.44 14.717 7.423a11.69 11.69 0 0 0 7.426-14.736zm11.877 26.594c-3.113-4.455-9.268-5.606-13.765-2.476-4.481 3.058-5.62 9.233-2.574 13.762 3.117 4.436 9.301 5.558 13.814 2.47 4.481-3.078 5.652-9.256 2.525-13.756zm19.272 21.431c-3.666-3.039-9.03-2.47-12.033 1.125-3.042 3.64-2.5 8.984 1.131 11.991a8.468 8.468 0 0 0 12.043-1.138c2.997-3.618 2.464-9.036-1.141-11.978zm22.107 14.623c-3.447-1.656-7.55-.143-9.16 3.33-1.577 3.494-.103 7.594 3.38 9.2 3.416 1.604 7.558.143 9.184-3.388 1.59-3.404.052-7.561-3.404-9.142zm22.62 7.9c-3.223-.642-6.417 1.433-7.063 4.634-.68 3.204 1.4 6.398 4.616 7.05 3.185.69 6.382-1.37 7.041-4.62.68-3.22-1.412-6.362-4.594-7.063zm21.532 3.237c-2.842 0-5.128 2.331-5.128 5.13 0 2.84 2.286 5.096 5.128 5.138 2.816-.042 5.124-2.299 5.124-5.137 0-2.8-2.308-5.13-5.124-5.13zM167.895 91.46c6.077 2.033 12.663-1.313 14.69-7.4 2.02-6.068-1.277-12.657-7.42-14.704a11.631 11.631 0 0 0-14.7 7.397c-1.982 6.046 1.277 12.683 7.43 14.707zM180.697 60c4.494 3.136 10.646 1.97 13.814-2.525a9.961 9.961 0 0 0-2.573-13.765c-4.49-3.107-10.653-1.972-13.747 2.499-3.13 4.493-1.972 10.691 2.506 13.791zm21.027-25.094a8.487 8.487 0 0 0 12.04 1.116c3.627-2.965 4.147-8.364 1.147-11.965-3.01-3.66-8.354-4.203-12.03-1.148-3.637 2.978-4.18 8.357-1.157 11.997zm24.968-16.827c1.613 3.466 5.764 4.976 9.207 3.317 3.489-1.561 4.96-5.687 3.369-9.136-1.626-3.456-5.768-4.947-9.185-3.401-3.482 1.639-4.956 5.725-3.391 9.22zm24.696-9.227c.695 3.295 3.86 5.331 7.077 4.646a5.933 5.933 0 0 0 4.613-7.048c-.678-3.207-3.87-5.286-7.04-4.6-3.266.669-5.316 3.792-4.65 7.002zm133.42 154.64c6.059 2.04 12.67-1.331 14.713-7.445 2.014-6.036-1.29-12.65-7.43-14.706a11.631 11.631 0 0 0-14.677 7.403c-2.033 6.13 1.274 12.692 7.394 14.749zm-16.76 25.563c4.44 3.11 10.663 1.966 13.747-2.49 3.117-4.538 1.956-10.674-2.506-13.758-4.57-3.127-10.675-2.024-13.791 2.502-3.036 4.458-1.97 10.704 2.55 13.746zm-22.957 19.666c3 3.676 8.4 4.206 12.01 1.138 3.635-3.007 4.171-8.373 1.12-12.026-2.946-3.605-8.322-4.155-11.969-1.09-3.605 2.939-4.154 8.325-1.16 11.978zm-24.386 11.826c1.604 3.514 5.762 5.011 9.205 3.417a6.97 6.97 0 0 0 3.368-9.249c-1.648-3.469-5.715-4.988-9.207-3.346-3.443 1.626-4.927 5.738-3.366 9.178zm-23.804 5.748c.66 3.266 3.86 5.344 7.064 4.64 3.246-.666 5.3-3.867 4.614-7.055-.65-3.21-3.86-5.256-7.058-4.613-3.194.685-5.286 3.83-4.62 7.028zm68.435-156.36c-2.728-4.953-8.958-6.834-13.98-4.145-4.984 2.755-6.83 9-4.121 13.95 2.716 5.012 8.958 6.88 13.976 4.21 4.995-2.755 6.834-9.017 4.125-14.015zm-19.268-24.22c-3.87-3.615-9.883-3.431-13.446.416-3.53 3.863-3.401 9.886.466 13.485 3.82 3.543 9.886 3.368 13.449-.453 3.572-3.857 3.394-9.896-.47-13.449zM322.13 31.19c-3.947-1.985-8.81-.369-10.817 3.753-1.953 3.931-.33 8.833 3.67 10.801 4.018 1.943 8.903.379 10.852-3.711 1.963-4.048.33-8.823-3.705-10.843zm-24.476-5.94a6.818 6.818 0 0 0-8.066 5.41c-.715 3.692 1.742 7.316 5.411 8.001 3.76.737 7.32-1.72 8.07-5.386a6.88 6.88 0 0 0-5.415-8.024zm-23.504.822c-2.867.204-5.062 2.69-4.914 5.587.214 2.89 2.713 5.133 5.632 4.956 2.935-.172 5.108-2.735 4.937-5.655-.233-2.913-2.722-5.066-5.655-4.888zm-19.928 4.756c-2.385.688-3.708 3.233-3.016 5.66.757 2.4 3.262 3.78 5.645 3.052 2.431-.717 3.763-3.3 3.02-5.69-.676-2.405-3.188-3.756-5.649-3.022zm-16.75 7.532c-1.913.99-2.615 3.42-1.577 5.302 1.031 1.869 3.401 2.638 5.325 1.568 1.868-1.044 2.592-3.443 1.59-5.334-1.047-1.904-3.491-2.58-5.337-1.536zm-24.79 114.633c-2.754-4.972-8.968-6.821-13.969-4.1-4.972 2.74-6.77 8.963-4.041 13.948 2.69 4.946 8.907 6.863 13.914 4.17a10.366 10.366 0 0 0 4.097-14.018zm14.293 20.154c-3.873-3.572-9.883-3.372-13.423.434-3.605 3.86-3.381 9.892.424 13.436 3.844 3.591 9.883 3.417 13.452-.392 3.589-3.921 3.417-9.909-.453-13.478zm17.41 13.478c-3.983-1.956-8.84-.346-10.873 3.644-1.95 3.967-.388 8.755 3.544 10.885 4.012 1.969 8.858.35 10.94-3.682 1.998-3.919.372-8.813-3.611-10.847zm20.57 7.517c-3.72-.708-7.286 1.694-8.033 5.367-.737 3.779 1.697 7.319 5.383 8.092 3.795.724 7.342-1.704 8.072-5.464.708-3.705-1.742-7.31-5.421-7.995zm20.116 2.046c-2.935.14-5.108 2.69-4.914 5.59.233 2.923 2.706 5.124 5.625 4.914 2.894-.171 5.092-2.683 4.898-5.609-.113-2.9-2.7-5.07-5.609-4.895zm18.046-2.932c-2.405.76-3.743 3.281-3.058 5.638a4.625 4.625 0 0 0 5.696 3.11c2.377-.753 3.796-3.297 3.043-5.732-.728-2.356-3.26-3.698-5.68-3.016zm15.609-5.716c-1.885 1.009-2.55 3.443-1.53 5.315 1.032 1.898 3.392 2.577 5.303 1.562 1.872-1.009 2.631-3.388 1.577-5.28a3.942 3.942 0 0 0-5.35-1.597zm-123.181-47.714c4.468-.783 7.364-5.005 6.527-9.38-.789-4.406-4.966-7.409-9.408-6.533a8.087 8.087 0 0 0-6.527 9.411c.802 4.339 4.979 7.345 9.408 6.502zm-2.612-25.938c3.61.45 6.882-2.28 7.348-5.878.291-3.637-2.35-6.87-6.016-7.248-3.573-.391-6.835 2.257-7.226 5.852-.41 3.624 2.24 6.931 5.894 7.274zm4.91-23.778c3.188 1.238 6.854-.236 8.18-3.511 1.273-3.188-.294-6.844-3.502-8.105-3.203-1.284-6.808.226-8.176 3.488-1.244 3.152.288 6.796 3.498 8.128zm10.504-20.193c2.357 1.72 5.648 1.254 7.375-1.157 1.761-2.306 1.28-5.61-1.067-7.3-2.367-1.775-5.668-1.28-7.375 1.06-1.762 2.357-1.238 5.638 1.067 7.397zm13.165-15.166c1.733 1.895 4.568 2.157 6.453.55 1.936-1.7 2.156-4.568.565-6.46-1.632-1.862-4.574-2.117-6.453-.494-1.913 1.684-2.137 4.51-.565 6.404zm145.798 54.13c4.39-.738 7.346-5.002 6.489-9.402-.721-4.374-4.972-7.32-9.398-6.518-4.39.847-7.336 4.995-6.511 9.427.856 4.387 5.004 7.346 9.42 6.492zm-1.655 23.127c3.589.43 6.886-2.243 7.268-5.825.404-3.683-2.266-6.9-5.852-7.29-3.679-.353-6.931 2.269-7.31 5.857-.394 3.599 2.264 6.929 5.894 7.258zm-8.208 22.269c3.207 1.338 6.883-.24 8.101-3.489 1.287-3.203-.19-6.815-3.462-8.117a6.204 6.204 0 0 0-8.108 3.488c-1.245 3.19.3 6.834 3.469 8.118zm-12.108 17.108c2.335 1.724 5.661 1.258 7.378-1.121 1.765-2.35 1.235-5.632-1.057-7.375-2.409-1.746-5.732-1.274-7.41 1.083-1.752 2.357-1.242 5.655 1.09 7.413zm-13.927 12.518c1.668 1.95 4.571 2.166 6.482.534 1.943-1.607 2.185-4.53.51-6.43-1.612-1.86-4.525-2.07-6.41-.505-1.924 1.646-2.163 4.526-.582 6.401zM330.4 66.263c-3.837-3.775-9.912-3.853-13.669.046-3.737 3.582-3.737 9.692 0 13.43 3.757 3.785 9.832 3.843 13.614.093 3.802-3.83 3.896-9.812.055-13.568zM306.19 51.3c-4.384-1.791-9.444.394-11.29 4.713-1.762 4.365.417 9.612 4.76 11.344 4.532 1.779 9.527-.384 11.285-4.833 1.827-4.429-.342-9.401-4.755-11.224zm-26.08-3.143c-4.2-.013-7.682 3.43-7.682 7.682.071 3.976 3.382 7.477 7.652 7.5 4.106.074 7.63-3.388 7.543-7.575.087-4.034-3.353-7.549-7.513-7.607zm-25.13 7.775c-2.903 1.167-4.264 4.484-3.13 7.33 1.297 2.948 4.572 4.322 7.478 3.203 2.923-1.264 4.22-4.649 3.01-7.468-1.154-2.955-4.5-4.267-7.358-3.065zm-12.12 97.201c-3.676-3.802-9.8-3.795-13.504-.09-3.847 3.824-3.893 9.857-.165 13.623 3.84 3.757 9.9 3.783 13.669.104a9.6 9.6 0 0 0 0-13.637zm17.196 12.399c-4.44-1.87-9.476.407-11.319 4.859-1.713 4.425.482 9.514 4.892 11.218 4.329 1.755 9.42-.223 11.186-4.688a8.764 8.764 0 0 0-4.76-11.39zm19.591 3.928c-4.154-.072-7.558 3.394-7.646 7.584.088 4.32 3.492 7.594 7.582 7.707 4.212-.093 7.63-3.388 7.726-7.613.059-4.148-3.385-7.572-7.662-7.678zm20.765-2.942c-2.828 1.16-4.325 4.377-3.061 7.329 1.183 2.896 4.536 4.322 7.387 3.18 2.887-1.23 4.329-4.467 3.026-7.451-1.106-2.926-4.478-4.31-7.352-3.058zm-75.123-20.216c4.135-1.578 6.285-6.204 4.571-10.523-1.532-4.148-6.262-6.207-10.38-4.487-4.165 1.6-6.192 6.275-4.598 10.38 1.649 4.126 6.223 6.256 10.407 4.63zm-6.153-24.615c3.366.016 6.234-2.752 6.311-6.21.058-3.389-2.8-6.247-6.068-6.305-3.52-.071-6.375 2.615-6.453 6.084-.058 3.518 2.745 6.36 6.21 6.43zm3.505-23.403c2.732 1.03 5.755-.214 6.886-2.874 1.073-2.642-.152-5.703-2.78-6.87-2.674-1.125-5.83.213-6.857 2.867-1.103 2.629.139 5.7 2.751 6.877zm117.62 3.346c4.171-1.568 6.162-6.266 4.449-10.459-1.562-4.047-6.159-6.23-10.226-4.597-4.264 1.675-6.356 6.288-4.723 10.436 1.668 4.225 6.327 6.233 10.5 4.62zm.1 22.161c3.496.004 6.311-2.738 6.33-6.197.095-3.417-2.644-6.32-6.12-6.363-3.397-.045-6.342 2.622-6.42 6.13.033 3.427 2.8 6.285 6.21 6.43zm-7.422 20.471c2.69 1.164 5.748-.155 6.873-2.79 1.096-2.641-.158-5.732-2.79-6.834-2.693-1.183-5.722.094-6.753 2.793-1.22 2.716.158 5.81 2.67 6.831zm-98.915-66.446c2.098 2.063 5.431 2.156 7.459-.03 1.962-2.007 2.04-5.33-.03-7.344-2.062-2.02-5.33-1.989-7.387-.013-1.985 2.027-1.985 5.35-.042 7.387zm84.137 84.638c2.16 2.092 5.367 2.163 7.417-.016 2.069-1.92 2.185-5.137.029-7.2-1.982-2.143-5.396-2.108-7.359-.136-2.02 2.056-2.05 5.415-.087 7.352zm-47.928-90.07c-4.16.844-6.689 4.902-5.88 8.846 1.03 4.038 4.955 6.624 9.074 5.67 3.993-.879 6.544-4.865 5.667-8.893-.937-3.99-4.962-6.583-8.861-5.622zm-21.942 12.26c-2.693 2.867-2.835 7.358-.042 10.122 2.803 2.832 7.306 2.855 10.245 0 2.735-2.764 2.735-7.255-.094-10.122-2.8-2.78-7.322-2.745-10.109 0zm-8.962 21.085c-.73 2.677.78 5.221 3.466 6.033 2.473.643 5.137-.896 5.81-3.447.753-2.586-.902-5.189-3.401-5.884-2.535-.695-5.167.783-5.875 3.298zm47.353 40.654c-3.876.967-6.576 4.972-5.615 8.887.85 4.087 4.956 6.663 8.955 5.771 4.083-.84 6.553-4.953 5.745-8.962-.983-4.099-4.96-6.501-9.085-5.696zm15.056-7.895c-2.735 2.845-2.735 7.416.061 10.271 2.861 2.738 7.368 2.696 9.967-.026 2.959-2.78 3.017-7.445.178-10.151-2.877-2.852-7.335-2.852-10.206-.094zm9.812-13.478c-.601 2.725.756 5.27 3.375 5.965 2.619.718 5.299-.938 5.98-3.43.686-2.56-.882-5.166-3.465-5.832-2.567-.757-5.205.811-5.89 3.297zm-11.907-41.527c1.319-3.3-.456-7.26-3.831-8.45-3.511-1.355-7.184.384-8.648 3.924-1.332 3.366.498 7.155 3.921 8.487 3.502 1.125 7.236-.489 8.558-3.96zm-26.659 71.157c1.384-3.333-.446-7.277-3.792-8.474-3.53-1.37-7.213.356-8.658 3.925-1.312 3.36.492 7.148 3.95 8.483 3.48 1.151 7.217-.51 8.5-3.934zm39.387-57.158c2.211-1.798 2.457-4.837.88-6.954-1.756-2.043-4.834-2.422-6.935-.808-2.05 1.593-2.477 4.713-.747 6.83 1.6 2.122 4.707 2.645 6.802.932zm-58.658 46.05c2.198-1.798 2.47-4.827.889-6.951-1.778-2.06-4.83-2.435-6.964-.821-2.063 1.574-2.45 4.697-.74 6.828 1.6 2.12 4.713 2.644 6.815.944zm63.149-30.855c1.855-.424 3.026-2.264 2.715-4.155-.423-1.962-2.302-3.281-4.174-2.78-1.978.314-3.126 2.22-2.767 4.054.378 1.946 2.263 3.288 4.226 2.88zm-71.755 14.984c1.849-.414 3.029-2.273 2.709-4.154-.404-1.933-2.286-3.246-4.17-2.761a3.36 3.36 0 0 0-2.758 4.022c.388 1.991 2.25 3.346 4.219 2.893z" fill="currentColor"/></svg>
