<svg version="1" xmlns="http://www.w3.org/2000/svg" width="933.333" height="933.333" viewBox="0 0 700 700"><path d="M166.4 86.9c-.7.8-.4 526.1.4 526.2 2.5.3 364.9.4 366 .1.9-.3 1.2-53.9 1.2-263.6V86.5H350.4c-101 0-183.8.2-184 .4zm101.3 67.6c3.5 8.2 9 21.3 12.2 29 3.3 7.7 16.2 38.3 28.6 68 43.7 104 41.2 98.3 42.4 95.3.5-1.5 2.9-7.1 5.2-12.5 4.6-11.1 6.1-14.5 7.9-18.8 4.8-11.7 20.5-48.7 22.1-52.1 1-2.4 1.9-4.9 1.9-5.6 0-.8.4-1.8.9-2.3.4-.6 4.1-8.9 8.1-18.5s8.1-19.3 9-21.5c1-2.2 5.3-12.3 9.5-22.5 4.3-10.2 9.7-23 12-28.5 2.3-5.5 5.7-13.5 7.5-17.8l3.2-7.7 21.7.2 21.6.3v421l-21.8.3c-11.9.1-21.8-.1-21.8-.5-.1-.5-.2-72.4-.3-160 0-87.5-.4-159.4-.7-159.7-.3-.4-3.2 5.6-6.3 13.1-11.5 27.5-15.8 37.9-17.1 40.8-.7 1.6-7.7 18.3-15.5 37s-14.7 35.3-15.5 37c-.7 1.6-7.2 16.9-14.3 34-7.2 17-14.3 33.9-15.8 37.4l-2.8 6.4-1.3-2.9c-.7-1.6-5.8-13.9-11.3-27.4-5.6-13.5-10.7-25.9-11.5-27.5-.7-1.7-4.5-10.9-8.5-20.5s-7.9-19.1-8.7-21c-2.6-6-3.8-8.7-17.8-42.5-7.6-18.2-15.3-36.7-17.1-41.3-1.9-4.6-4.2-10.2-5.2-12.5-1.1-2.3-2.5-5.7-3.2-7.4-.7-1.8-1.5-3.1-1.9-2.9-.4.3-.6 72.1-.6 159.6 0 87.6-.3 159.6-.6 160.1s-9.6.8-22 .7l-21.4-.3-.1-209.5c0-115.2.2-210.1.4-210.8.3-1 5.2-1.2 21.5-1l21.1.3 6.3 15zM167 656.8c-.6.2-1 8.4-1 21.8V700l184.2-.2 184.3-.3-.1-21.4v-21.5H351.2c-100.8-.1-183.6 0-184.2.2z"/></svg>
